<svg width="30" height="20" viewBox="0 0 30 20" fill="none" xmlns="http://www.w3.org/2000/svg">
<path d="M3.06507 8.39464C3.06507 8.39464 5.77749 4.46348 11.1933 4.0569V2.63056C5.19461 3.1038 0 8.0945 0 8.0945C0 8.0945 2.94212 16.4494 11.1933 17.2143V15.6984C5.13808 14.95 3.06507 8.39464 3.06507 8.39464ZM11.1933 12.6834V14.0717C6.61699 13.2703 5.34672 8.59722 5.34672 8.59722C5.34672 8.59722 7.544 6.20618 11.1933 5.81854V7.34197C11.1905 7.34197 11.1886 7.34114 11.1863 7.34114C9.27096 7.11535 7.77469 8.87285 7.77469 8.87285C7.77469 8.87285 8.61323 11.8318 11.1933 12.6834ZM11.1933 0V2.63056C11.3694 2.61718 11.5455 2.60605 11.7226 2.60013C18.5424 2.37435 22.9861 8.0945 22.9861 8.0945C22.9861 8.0945 17.8824 14.1906 12.5653 14.1906C12.078 14.1906 11.6218 14.1462 11.1933 14.0717V15.6984C11.5597 15.7441 11.9396 15.7709 12.3361 15.7709C17.284 15.7709 20.8622 13.2887 24.327 10.3509C24.9014 10.8029 27.2532 11.9022 27.7367 12.3836C24.4423 15.0929 16.7646 17.2768 12.4119 17.2768C11.9923 17.2768 11.5894 17.2519 11.1933 17.2143V19.5H30V0H11.1933ZM11.1933 5.81854V4.0569C11.3676 4.04494 11.5432 4.03571 11.7226 4.03014C16.6267 3.87883 19.8443 8.16992 19.8443 8.16992C19.8443 8.16992 16.3692 12.9109 12.6431 12.9109C12.1068 12.9109 11.626 12.8263 11.1933 12.6834V7.34197C13.1025 7.56858 13.4868 8.39701 14.6346 10.2766L17.1874 8.16199C17.1874 8.16199 15.3239 5.76124 12.1825 5.76124C11.8408 5.76124 11.514 5.7848 11.1933 5.81854Z" fill="white"/>
</svg>
