<svg xmlns="http://www.w3.org/2000/svg" width="170" height="17" viewBox="0 0 170 17" fill="none">
  <path d="M20.2698 11.2362C20.2698 9.26613 20.2698 7.29328 20.2698 5.32323C20.2698 4.16046 20.5307 3.84911 21.6871 3.58735C22.6771 3.36416 23.1849 2.80759 23.2795 1.84046C23.3655 0.969755 23.8131 0.570239 24.7226 0.570239C27.9764 0.570239 31.2299 0.567479 34.4807 0.570239C35.3615 0.570239 35.835 1.0111 35.8696 1.82393C35.9097 2.85993 36.5179 3.48539 37.6195 3.62592C38.6956 3.76644 38.9452 4.08883 38.9252 5.33148C38.9109 6.18839 38.5177 6.5714 37.5536 6.67058C36.6699 6.76153 35.904 7.40077 35.8809 8.06755C35.855 8.80599 36.5811 9.54441 37.4705 9.68493C38.7071 9.88058 38.9252 10.1258 38.9252 11.3299C38.9252 13.3192 38.9252 13.1153 38.9252 15.1048C38.9252 15.9975 38.4575 16.4466 37.5335 16.4548C37.4015 16.4548 37.2668 16.4548 37.1348 16.4548C36.2856 16.441 35.835 16.014 35.8322 15.2012C35.8264 13.2668 35.8322 13.526 35.8322 11.5916C35.8322 10.4372 35.1493 9.71251 33.95 9.70423C31.0779 9.68217 28.2059 9.68217 25.331 9.70423C24.1059 9.71251 23.3999 10.4371 23.3944 11.6082C23.3886 13.4873 23.3856 13.1732 23.3971 15.0551C23.3999 15.6309 23.2679 16.1739 22.6713 16.353C22.0286 16.5484 21.2739 16.6726 20.7232 16.1849C20.4505 15.9423 20.3014 15.4518 20.2926 15.0717C20.2525 13.0658 20.2726 13.2502 20.2726 11.2417L20.2698 11.2362ZM29.5256 3.6149C28.1399 3.6149 26.7513 3.60938 25.3654 3.62042C25.064 3.62042 24.7514 3.64797 24.4674 3.73613C23.3427 4.08883 23.0356 5.32323 23.842 6.14707C24.2865 6.60171 24.8603 6.67886 25.4602 6.67886C28.1771 6.67886 30.8942 6.68162 33.6113 6.6761C33.8926 6.6761 34.1881 6.65405 34.4551 6.5769C35.1465 6.38128 35.64 5.94594 35.7288 5.24882C35.8064 4.63163 35.4476 4.14393 34.8911 3.87389C34.5497 3.70858 34.1307 3.6342 33.7463 3.62592C32.3403 3.59837 30.9346 3.6149 29.5286 3.6149H29.5256Z" fill="white"/>
  <path d="M79.9869 16.4905C78.3714 16.4905 76.7532 16.4905 75.138 16.4905C74.1911 16.4905 73.8296 16.1792 73.7119 15.2893C73.5626 14.1457 73.0348 13.6387 71.8154 13.4681C71.0866 13.3659 70.6849 12.9638 70.6822 12.2583C70.6734 9.06491 70.6734 8.06471 70.6822 4.87125C70.6822 4.14936 71.0608 3.7636 71.8039 3.6589C73.0433 3.48531 73.5626 2.97558 73.7177 1.7825C73.8211 0.969672 74.2571 0.594944 75.1207 0.594944C78.3744 0.592184 81.6252 0.592184 84.8787 0.594944C85.7624 0.594944 86.2473 1.03581 86.2789 1.84038C86.3218 2.88739 86.9159 3.53491 88.0148 3.64237C88.5713 3.69749 89.0706 3.84626 89.2284 4.37805C89.4093 4.98974 89.5011 5.66205 89.0764 6.22414C88.5427 6.93225 87.7737 6.67602 87.0851 6.53273C86.5228 6.417 86.2616 6.00371 86.2187 5.44714C86.1297 4.27611 85.4498 3.65338 84.2304 3.65065C81.3583 3.63961 78.4863 3.63961 75.6142 3.65065C74.5326 3.65614 73.7521 4.31191 73.7922 5.13576C73.8323 5.94585 74.4751 6.59611 75.3301 6.60712C77.3817 6.63467 79.4302 6.64295 81.4817 6.62917C82.4629 6.6209 83.0711 7.07829 83.0941 7.92971C83.1285 9.22472 82.7527 9.6573 81.582 9.66006C79.5649 9.66282 77.5508 9.66006 75.5339 9.66006C74.435 9.66006 73.8007 10.258 73.7894 11.316C73.7779 12.2282 73.7837 10.9468 73.7894 11.8589C73.7894 12.6138 74.2829 13.231 75.0489 13.4018C75.3417 13.4681 75.6515 13.4871 75.9529 13.4871C78.5952 13.4926 81.2406 13.4954 83.8832 13.4871C85.4525 13.4871 86.0436 12.9748 86.2273 11.4924C86.3075 10.8559 86.7293 10.4729 87.3979 10.4426C87.6819 10.4315 87.9689 10.4261 88.2529 10.4508C88.4193 10.4646 88.5944 10.5115 88.7379 10.5886C89.2715 10.8669 89.4808 11.6136 89.2974 12.5174C89.1855 13.0656 88.7838 13.4211 88.1325 13.4598C87.3949 13.5037 86.7925 13.7628 86.4483 14.4021C86.3249 14.6307 86.296 14.9255 86.2847 15.1902C86.2446 16.0828 85.8371 16.4822 84.893 16.485C83.2577 16.4905 81.6222 16.485 79.9869 16.485V16.4905Z" fill="white"/>
  <path d="M67.9447 11.1281C67.9447 13.1918 67.9447 13.0595 67.9447 15.1234C67.9447 16.0823 67.523 16.4789 66.5217 16.4872C66.4442 16.4872 66.3694 16.4872 66.2921 16.4872C65.2133 16.4844 64.846 16.14 64.843 15.1123C64.8402 11.8804 64.843 10.8442 64.843 7.61222C64.843 6.90135 64.8977 6.1822 64.8144 5.47959C64.7599 5.0167 64.6164 4.47388 64.3066 4.14325C63.4975 3.26978 62.1663 3.61147 61.7902 4.7329C61.7157 4.95606 61.7473 5.22057 61.6412 5.42447C61.4575 5.78266 61.2824 6.21527 60.9668 6.43018C60.3385 6.85451 60.0603 7.35875 60.0658 8.08063C60.0831 10.1444 60.0746 10.0122 60.0716 12.0758C60.0716 13.0733 59.624 13.481 58.5567 13.4838C57.435 13.4866 56.9759 13.0899 56.9729 12.0869C56.9671 10.0232 56.9586 10.1554 56.9786 8.09167C56.9844 7.34495 56.6976 6.82696 56.0433 6.40264C55.742 6.20699 55.5729 5.78818 55.4093 5.441C55.24 5.08281 55.2084 4.66124 55.0104 4.32234C54.692 3.77402 54.1238 3.55359 53.4983 3.66933C52.8758 3.7878 52.4626 4.20936 52.3133 4.80452C52.2303 5.13793 52.2157 5.4906 52.2157 5.83503C52.2102 9.6319 52.2072 11.2355 52.2157 15.0323C52.2157 15.5697 52.1987 16.1841 51.6134 16.3219C51.005 16.4679 50.3022 16.4265 49.6853 16.286C49.4326 16.2283 49.1459 15.6881 49.1429 15.3657C49.1085 11.0757 49.1143 8.97889 49.1258 4.69155C49.1258 4.03853 49.5905 3.63626 50.4342 3.46543C51.6763 3.21469 52.0093 2.88956 52.2416 1.69649C52.4052 0.856108 52.9017 0.561289 54.0952 0.599851C54.8757 0.624663 55.3032 1.03522 55.3892 1.84253C55.4954 2.83171 55.9946 3.44614 56.8898 3.60043C57.2714 3.66381 57.6731 3.63902 58.0632 3.62525C58.7547 3.60319 59.4577 3.6335 60.1318 3.51503C61.1103 3.3442 61.5293 2.82619 61.6612 1.8563C61.7816 0.982858 62.169 0.616384 62.9954 0.599851C64.2118 0.572303 64.6508 0.858868 64.8287 1.78467C65.0412 2.89232 65.5432 3.33868 66.7196 3.47095C67.5343 3.56187 67.939 3.98344 67.9417 4.77422C67.9475 6.89307 67.9417 9.0092 67.9417 11.1281H67.9447Z" fill="white"/>
  <path d="M0 11.2692C0 9.2606 0 7.25194 0 5.24606C0 4.21555 0.318379 3.84632 1.36007 3.63417C2.37567 3.42751 2.89777 2.8737 3.02121 1.879C3.13611 0.947701 3.53478 0.60052 4.51023 0.597761C7.74394 0.597761 10.9804 0.595026 14.2139 0.597761C15.0947 0.597761 15.5682 1.03037 15.6141 1.85145C15.6743 2.90677 16.2624 3.51294 17.3557 3.65346C18.4258 3.79123 18.6639 4.09982 18.6438 5.31493C18.6267 6.24625 18.288 6.60168 17.3327 6.69813C16.2368 6.80834 15.66 7.3897 15.6141 8.4395C15.5767 9.29917 15.1291 9.71248 14.191 9.71522C11.3362 9.72074 8.4813 9.7731 5.62945 9.69871C3.7099 9.64911 3.01543 8.44226 3.07866 9.93291C3.15041 11.6274 3.09572 13.3275 3.09572 15.0248C3.09572 16.1655 2.75727 16.4852 1.56379 16.4879C0.364291 16.4879 0 16.1573 0 15.0441C0 13.0548 0 13.2585 0 11.2692ZM9.25027 3.64794C7.88167 3.64794 6.51006 3.64242 5.14147 3.65346C4.8404 3.65346 4.52754 3.67549 4.24052 3.75816C3.05557 4.10258 2.69706 5.35901 3.58922 6.16358C3.8963 6.43911 4.38403 6.67055 4.79449 6.67607C7.761 6.72015 10.7278 6.70638 13.6945 6.69261C13.9672 6.69261 14.257 6.59067 14.5124 6.48045C15.0947 6.22972 15.4736 5.76956 15.4791 5.16615C15.4849 4.55998 15.0947 4.09156 14.5179 3.84908C14.1996 3.71408 13.8207 3.66172 13.468 3.65622C12.062 3.63417 10.6532 3.64794 9.24726 3.64794H9.25027Z" fill="white"/>
  <path d="M42.1852 9.58916C42.1852 7.07076 42.1852 4.55239 42.1852 2.03675C42.1852 1.04205 42.6474 0.598451 43.6745 0.592931C44.8765 0.587437 45.3472 0.978698 45.3499 2.02297C45.3557 7.11211 45.3557 10.008 45.3499 15.0998C45.3499 16.1222 44.8968 16.4968 43.7174 16.494C42.6358 16.4913 42.191 16.0946 42.1882 15.1136C42.1852 12.5403 42.1882 12.1627 42.1882 9.58916H42.1852Z" fill="white"/>
  <path d="M92.1259 16.5104L92.367 15.7196C93.222 15.6729 93.8475 15.5322 94.2434 15.3009C94.6393 15.0693 94.9582 14.5404 95.1991 13.7193L98.2747 3.39223C98.3866 3.05057 98.4443 2.75575 98.4443 2.50777C98.4443 2.08896 98.2978 1.81893 98.008 1.69494C97.7182 1.57095 97.2476 1.50206 96.602 1.48552L96.8431 0.694746H103.554L103.313 1.48552C102.392 1.50206 101.769 1.63984 101.448 1.90436C101.124 2.16887 100.851 2.67308 100.625 3.41704L97.4774 14.0003C97.4114 14.2318 97.3795 14.4411 97.3795 14.6285C97.3795 14.9868 97.5318 15.254 97.8389 15.4303C98.1457 15.6095 98.6794 15.7058 99.4368 15.7224L99.196 16.5132H92.1234L92.1259 16.5104Z" fill="white"/>
  <path d="M109.711 16.7184C109.275 16.7184 108.925 16.597 108.658 16.3574C108.392 16.1178 108.26 15.7788 108.26 15.3461C108.26 14.8669 108.455 14.2 108.842 13.3457L110.586 9.41391C110.876 8.60657 111.023 8.05 111.023 7.73865C111.023 7.25922 110.782 7.01674 110.297 7.01674C109.668 7.01674 108.925 7.53751 108.067 8.57627C107.212 9.61505 106.42 10.8439 105.694 12.2629C104.969 13.6819 104.354 15.0982 103.852 16.5089H101.988L104.507 8.48258C104.667 7.97009 104.748 7.59813 104.748 7.36668C104.748 7.13524 104.636 7.01674 104.409 7.01674C103.99 7.01674 103.431 7.62018 102.736 8.82976L101.962 8.59832C103.061 6.33342 104.254 5.20096 105.545 5.20096C105.964 5.20096 106.291 5.30844 106.526 5.52611C106.762 5.74378 106.877 6.05237 106.877 6.45741C106.877 6.90653 106.747 7.45484 106.489 8.09684C106.231 8.7416 105.657 10.0394 104.77 11.9929H105.109C106.352 9.52686 107.433 7.77997 108.354 6.74671C109.275 5.71621 110.228 5.20096 111.212 5.20096C111.857 5.20096 112.36 5.34976 112.712 5.64182C113.068 5.93664 113.246 6.36373 113.246 6.9203C113.246 7.57058 113.051 8.30899 112.664 9.1301L110.822 13.365C110.546 13.9546 110.408 14.3432 110.408 14.5279C110.408 14.7758 110.529 14.8997 110.773 14.8997C111.192 14.8997 111.766 14.2881 112.492 13.062L113.266 13.2935C112.184 15.5721 110.997 16.7129 109.705 16.7129L109.711 16.7184Z" fill="white"/>
  <path d="M119.205 7.02167L116.491 13.9072C116.393 14.1388 116.344 14.3481 116.344 14.5355C116.344 14.7836 116.465 14.9075 116.709 14.9075C117.291 14.9075 118.098 14.2186 119.131 12.8382L119.882 13.0477C118.574 15.4971 117.154 16.7232 115.619 16.7232C115.231 16.7232 114.884 16.6076 114.577 16.3732C114.27 16.1419 114.118 15.8002 114.118 15.3511C114.118 14.8551 114.279 14.2352 114.603 13.4913L117.34 7.02443H115.039L115.378 5.90853H117.728L118.551 3.6767L120.95 3.48933L119.739 5.90853H122.453L122.114 7.02443H119.208L119.205 7.02167Z" fill="white"/>
  <path d="M130.591 7.08928C130.591 8.17488 129.9 9.14753 128.52 10.01C127.14 10.8696 125.384 11.3077 123.252 11.3243C123.14 11.867 123.083 12.3327 123.083 12.7213C123.083 14.1787 123.768 14.909 125.143 14.909C126.256 14.909 127.243 14.2256 128.098 12.8618L128.85 13.071C128.703 13.4431 128.52 13.8234 128.293 14.2118C128.066 14.6005 127.774 15.0026 127.409 15.4214C127.045 15.8403 126.6 16.1821 126.078 16.4437C125.553 16.7082 124.991 16.8404 124.394 16.8404C123.375 16.8404 122.572 16.5732 121.984 16.0385C121.393 15.5042 121.1 14.6637 121.1 13.5149C121.1 12.3658 121.404 11.1341 122.01 9.86392C122.615 8.59372 123.47 7.49984 124.577 6.58505C125.682 5.67028 126.841 5.21289 128.055 5.21289C129.75 5.21289 130.597 5.84111 130.597 7.09754L130.591 7.08928ZM127.272 6.41422C126.577 6.41422 125.871 6.81376 125.151 7.61279C124.434 8.41185 123.88 9.36244 123.493 10.4618C124.913 10.3075 126.044 9.9025 126.884 9.25222C127.725 8.60197 128.144 7.93518 128.144 7.25184C128.144 6.6925 127.854 6.41422 127.272 6.41422Z" fill="white"/>
  <path d="M131.631 16.7195C131.164 16.7195 130.805 16.5955 130.553 16.3474C130.303 16.0995 130.177 15.7578 130.177 15.3253C130.177 14.7989 130.355 14.0468 130.71 13.0686L134.248 3.01987C134.457 2.44674 134.497 2.02794 134.369 1.76342C134.239 1.49891 133.924 1.35287 133.424 1.32256L132.481 1.25369L132.65 0.603413L136.598 0H137.203L132.552 13.2118C132.294 13.9421 132.165 14.383 132.165 14.5373C132.165 14.7851 132.285 14.9093 132.529 14.9093C133.143 14.9093 134.007 14.0495 135.12 12.3274L135.895 12.5369C135.135 14.0247 134.435 15.0965 133.789 15.7468C133.143 16.3971 132.423 16.725 131.634 16.725L131.631 16.7195Z" fill="white"/>
  <path d="M137.978 16.7195C137.511 16.7195 137.152 16.5955 136.9 16.3474C136.65 16.0995 136.524 15.7578 136.524 15.3253C136.524 14.7989 136.702 14.0468 137.058 13.0686L140.595 3.01987C140.805 2.44674 140.845 2.02794 140.716 1.76342C140.587 1.49891 140.271 1.35287 139.772 1.32256L138.828 1.25369L138.997 0.603413L142.945 0H143.55L138.899 13.2118C138.641 13.9421 138.512 14.383 138.512 14.5373C138.512 14.7851 138.633 14.9093 138.877 14.9093C139.49 14.9093 140.354 14.0495 141.467 12.3274L142.242 12.5369C141.482 14.0247 140.782 15.0965 140.136 15.7468C139.49 16.3971 138.77 16.725 137.981 16.725L137.978 16.7195Z" fill="white"/>
  <path d="M152.003 7.08928C152.003 8.17488 151.311 9.14753 149.931 10.01C148.551 10.8696 146.795 11.3077 144.663 11.3243C144.551 11.867 144.494 12.3327 144.494 12.7213C144.494 14.1787 145.18 14.909 146.554 14.909C147.667 14.909 148.654 14.2256 149.509 12.8618L150.261 13.071C150.115 13.4431 149.931 13.8234 149.704 14.2118C149.478 14.6005 149.185 15.0026 148.821 15.4214C148.456 15.8403 148.011 16.1821 147.489 16.4437C146.964 16.7082 146.402 16.8404 145.805 16.8404C144.786 16.8404 143.983 16.5732 143.395 16.0385C142.804 15.5042 142.511 14.6637 142.511 13.5149C142.511 12.3658 142.816 11.1341 143.421 9.86392C144.026 8.59372 144.881 7.49984 145.989 6.58505C147.093 5.67028 148.253 5.21289 149.466 5.21289C151.162 5.21289 152.008 5.84111 152.008 7.09754L152.003 7.08928ZM148.683 6.41422C147.989 6.41422 147.283 6.81376 146.563 7.61279C145.845 8.41185 145.292 9.36244 144.904 10.4618C146.324 10.3075 147.455 9.9025 148.295 9.25222C149.136 8.60197 149.555 7.93518 149.555 7.25184C149.555 6.6925 149.265 6.41422 148.683 6.41422Z" fill="white"/>
  <path d="M154.789 16.8341C153.82 16.8341 153.048 16.5667 152.477 16.0323C151.903 15.4976 151.616 14.6629 151.616 13.5304C151.616 12.3979 151.906 11.1498 152.489 9.87953C153.071 8.60933 153.897 7.50993 154.97 6.58689C156.043 5.66384 157.18 5.20371 158.373 5.20371C159.214 5.20371 159.874 5.40485 160.359 5.80712C160.844 6.2094 161.084 6.70535 161.084 7.29502C161.084 7.77444 160.953 8.16294 160.686 8.45776C160.419 8.75258 160.06 8.89863 159.607 8.89863C158.93 8.89863 158.542 8.59553 158.445 7.99211C158.428 7.88466 158.422 7.60361 158.422 7.1545C158.422 6.70535 158.365 6.37197 158.253 6.1543C157.025 6.17084 155.943 6.90925 155.008 8.37512C154.072 9.84097 153.602 11.3013 153.602 12.7589C153.602 14.2163 154.247 14.8998 155.538 14.8998C156.637 14.8998 157.613 14.2108 158.471 12.8304L159.222 13.0399C159.062 13.4283 158.872 13.8114 158.654 14.1918C158.436 14.5719 158.149 14.9743 157.794 15.4013C157.438 15.8283 156.999 16.1728 156.474 16.4372C155.949 16.7019 155.386 16.8341 154.789 16.8341Z" fill="white"/>
  <path d="M165.809 7.02167L163.094 13.9072C162.997 14.1388 162.948 14.3481 162.948 14.5355C162.948 14.7836 163.069 14.9075 163.313 14.9075C163.895 14.9075 164.701 14.2186 165.734 12.8382L166.486 13.0477C165.177 15.4971 163.757 16.7232 162.222 16.7232C161.835 16.7232 161.488 16.6076 161.181 16.3732C160.874 16.1419 160.722 15.8002 160.722 15.3511C160.722 14.8551 160.882 14.2352 161.207 13.4913L163.944 7.02443H161.643L161.981 5.90853H164.331L165.155 3.6767L167.553 3.48933L166.342 5.90853H169.057L168.718 7.02443H165.811L165.809 7.02167Z" fill="white"/>
</svg>