<svg width="12" height="12" viewBox="0 0 12 12" fill="none" xmlns="http://www.w3.org/2000/svg">
<path d="M5.48653 9.18379e-05C5.02861 0.00221956 4.59131 0.0412735 4.20653 0.10936C3.07301 0.309616 2.86721 0.728767 2.86721 1.50175V2.52263H5.54585V2.86293H2.86721H1.86194C1.08345 2.86293 0.401786 3.33084 0.18857 4.22098C-0.0573725 5.24128 -0.0682814 5.87796 0.18857 6.94332C0.378977 7.73634 0.833695 8.30138 1.61218 8.30138H2.53316V7.07757C2.53316 6.19344 3.29813 5.41357 4.20653 5.41357H6.88205C7.62681 5.41357 8.22136 4.80035 8.22136 4.05239V1.50175C8.22136 0.775827 7.60896 0.230515 6.88205 0.10936C6.4219 0.0327625 5.94445 -0.00203592 5.48653 9.18379e-05ZM4.03794 0.821167C4.31463 0.821167 4.54058 1.05081 4.54058 1.33317C4.54058 1.61453 4.31463 1.84205 4.03794 1.84205C3.76027 1.84205 3.53531 1.61453 3.53531 1.33317C3.53531 1.05081 3.76027 0.821167 4.03794 0.821167Z" fill="#6A6A6A" fill-opacity="0.22"/>
<path d="M8.55539 2.85938V4.04884C8.55539 4.97102 7.77357 5.74719 6.88202 5.74719H4.20651C3.47364 5.74719 2.86719 6.37442 2.86719 7.10836V9.659C2.86719 10.3849 3.49843 10.8119 4.20651 11.0202C5.05441 11.2695 5.86751 11.3145 6.88202 11.0202C7.55638 10.8249 8.22134 10.432 8.22134 9.659V8.63812H5.54583V8.29782H8.22134H9.56066C10.3392 8.29782 10.6292 7.75481 10.9 6.93977C11.1796 6.1007 11.1677 5.2938 10.9 4.21743C10.7076 3.44244 10.3401 2.85938 9.56066 2.85938H8.55539ZM7.05061 9.3187C7.32829 9.3187 7.55325 9.54622 7.55325 9.82758C7.55324 10.1099 7.32829 10.3396 7.05061 10.3396C6.77392 10.3396 6.54797 10.1099 6.54797 9.82758C6.54797 9.54622 6.77392 9.3187 7.05061 9.3187Z" fill="#D7D7D7" fill-opacity="0.22"/>
</svg>
