<svg width="18" height="18" viewBox="0 0 18 18" fill="none" xmlns="http://www.w3.org/2000/svg">
<path d="M15 1.50146H3C2.17157 1.50146 1.5 2.17304 1.5 3.00147V6.00147C1.5 6.82989 2.17157 7.50147 3 7.50147H15C15.8284 7.50147 16.5 6.82989 16.5 6.00147V3.00147C16.5 2.17304 15.8284 1.50146 15 1.50146Z" stroke="#737373" stroke-width="1.125" stroke-linecap="round"/>
<path d="M15 10.5015H3C2.17157 10.5015 1.5 11.173 1.5 12.0015V15.0015C1.5 15.8299 2.17157 16.5015 3 16.5015H15C15.8284 16.5015 16.5 15.8299 16.5 15.0015V12.0015C16.5 11.173 15.8284 10.5015 15 10.5015Z" stroke="#737373" stroke-width="1.125" stroke-linecap="round"/>
<path d="M4.5 4.5H4.51" stroke="#737373" stroke-width="1.125" stroke-linecap="round"/>
<path d="M4.5 13.5H4.51" stroke="#737373" stroke-width="1.125" stroke-linecap="round"/>
</svg>
