<svg width="930" height="301" viewBox="0 0 930 301" fill="none" xmlns="http://www.w3.org/2000/svg">
<g clip-path="url(#clip0_880_973)">
<path d="M0.5 0.5H929.5V300.5H0.5V0.5Z" fill="#E1F045"/>
<path d="M790.653 -188.672L864.165 -115.039C864.165 -114.983 864.166 -114.915 864.165 -114.836C864.163 -114.565 864.159 -114.159 864.147 -113.624C864.125 -112.554 864.076 -110.967 863.97 -108.902C863.757 -104.772 863.315 -98.7295 862.399 -91.0898C860.567 -75.8099 856.837 -54.1419 849.246 -28.6045C834.065 22.4697 803.442 89.0178 741.674 150.905C679.679 213.001 613.594 243.692 563.011 258.859C537.719 266.443 516.303 270.146 501.214 271.953C493.669 272.856 487.707 273.286 483.633 273.489C481.596 273.591 480.031 273.636 478.977 273.656C478.449 273.666 478.049 273.67 477.782 273.671C477.705 273.671 477.639 273.671 477.584 273.671L402.688 198.754V197.306C402.96 197.301 403.343 197.293 403.833 197.278C404.912 197.246 406.508 197.183 408.581 197.06C412.727 196.812 418.782 196.321 426.426 195.349C441.712 193.404 463.354 189.532 488.788 181.823C539.656 166.406 605.699 135.641 666.398 74.2529C728.424 11.5351 759.129 -54.3085 774.326 -104.478C781.925 -129.561 785.647 -150.727 787.47 -165.626C788.381 -173.075 788.817 -178.959 789.025 -182.981C789.13 -184.993 789.177 -186.539 789.198 -187.584C789.208 -188.046 789.212 -188.409 789.214 -188.672H790.653ZM862.04 197.834L936.313 272.191V273.531L646.135 273.634V272.273C687.956 248.126 716.878 223.525 742.888 197.834H862.04Z" stroke="black" stroke-opacity="0.12"/>
</g>
<path d="M0.5 0.5H929.5V300.5H0.5V0.5Z" stroke="#202020"/>
<defs>
<clipPath id="clip0_880_973">
<path d="M0.5 0.5H929.5V300.5H0.5V0.5Z" fill="white"/>
</clipPath>
</defs>
</svg>
