<svg xmlns="http://www.w3.org/2000/svg" width="77" height="16" viewBox="0 0 77 16" fill="none">
  <path d="M51.4774 3.96578C53.5829 3.96578 55.0438 4.82506 55.0438 6.47978C55.0438 7.16595 54.6785 7.7035 54.2278 7.91759H52.5952C52.6391 7.57461 52.68 7.2508 52.68 6.86645C52.68 5.72765 52.3147 4.7834 51.1126 4.7834C49.4795 4.78364 48.5351 6.63081 48.5351 9.01547C48.5351 11.8285 49.8232 13.6538 51.9937 13.6539L51.9912 13.651C53.3447 13.651 54.2894 13.1133 55 12.062L55.3648 12.2763C54.6982 14.6173 53.1085 15.7784 50.9183 15.7784C48.0389 15.7783 45.9137 13.6292 45.9137 10.2588C45.9138 6.67198 48.0827 3.96599 51.4774 3.96578ZM61.3764 3.96049C64.3186 3.96049 65.7574 5.87118 65.7574 8.45065L65.7598 8.45307V8.94708H58.7577C58.6724 11.9548 60.2182 13.7362 62.3231 13.7363C63.7836 13.7362 64.7495 13.113 65.5237 11.9961L65.8668 12.1886C65.3097 14.3154 63.7397 15.7755 61.2694 15.7755C58.1542 15.7754 56.0704 13.4782 56.0704 10.1687C56.0704 6.4967 58.4337 3.96068 61.3764 3.96049ZM72.01 3.96049C74.9522 3.96057 76.3905 5.87123 76.3905 8.45065L76.394 8.45307V8.94708H69.3908C69.306 11.9548 70.8513 13.7362 72.9567 13.7363C74.4172 13.7362 75.3837 13.1131 76.1568 11.9961L76.5 12.1886C75.9423 14.3155 74.3728 15.7755 71.9025 15.7755C68.7873 15.7753 66.7036 13.4781 66.7036 10.1687C66.7036 6.49665 69.0674 3.9606 72.01 3.96049ZM10.0618 1.80762L2.09123 15.5776H0L9.01739 0L10.0618 1.80762ZM12.7626 6.48654L5.4609 15.5776H3.1395L11.7909 4.80507L12.7626 6.48654ZM18.0146 15.5776H10.6805L17.0698 13.9433L18.0146 15.5776ZM15.4148 11.0768L9.45218 15.5761H6.44754L14.5028 9.49745L15.4148 11.0768ZM35.236 14.016C35.472 14.595 35.9224 14.7244 36.5039 14.812V15.5636H29.9302V14.812C31.1981 14.7682 31.7334 14.5539 31.7335 13.8677C31.7334 13.6317 31.6704 13.3516 31.5414 13.0304L30.5532 10.604V10.6016H24.7751L23.8525 13.0063C23.7236 13.3274 23.6604 13.6072 23.6604 13.8432C23.6604 14.5294 24.1987 14.7657 25.5079 14.8096V15.5612H21.0804V14.8096C21.6816 14.7244 22.1126 14.5952 22.3487 14.0136L27.0315 1.98963L26.3645 0.378473H29.7159L35.236 14.016ZM41.3797 7.14622C42.4116 4.80529 43.0549 3.9678 44.3227 3.96771C44.7728 3.96775 45.0966 4.11916 45.267 4.33318V6.65216H44.8582C43.527 6.65216 42.473 6.71809 41.3778 7.81311V13.7411L41.3797 13.7387C41.3797 14.6196 41.8744 14.7487 43.2056 14.8558V15.5636H37.0624V14.8558C38.0723 14.7901 38.4155 14.6633 38.4155 13.9115V6.30884L37.1255 5.55719V5.14839L40.9709 3.96771H41.4649L41.3797 7.14622ZM25.1184 9.67707H30.1883L27.6107 3.21124L25.1184 9.67707ZM61.1644 4.75884C59.77 4.75914 58.9741 6.17783 58.8016 8.15353H63.0972C63.0972 6.13379 62.5588 4.75884 61.1644 4.75884ZM71.798 4.75884C70.4036 4.75898 69.6078 6.17768 69.4347 8.15353H73.7304C73.7304 6.13384 73.1929 4.7589 71.798 4.75884Z" fill="white" fill-opacity="0.5"/>
</svg>