<svg xmlns="http://www.w3.org/2000/svg" width="167" height="20" viewBox="0 0 167 20" fill="none">
  <path d="M30.8622 5.77826C30.6881 5.1479 32.0739 4.46577 32.6056 4.64263C32.6668 4.66302 33.2447 5.32575 33.2575 5.37328C33.2713 5.42561 33.2641 5.45482 33.2388 5.50054C33.1027 5.75015 31.464 6.42458 31.1807 6.25986C31.1558 6.24541 30.8699 5.8058 30.8622 5.77826Z" fill="#868686"/>
  <path fill-rule="evenodd" clip-rule="evenodd" d="M27.2293 0.106058C27.4277 0.0795973 27.555 -0.149044 27.723 0.160622C27.7577 0.224543 27.7374 0.336952 27.7622 0.367256L27.7627 0.365587C27.8608 0.483505 28.0988 0.232253 28.3032 0.795374C28.4278 1.13866 28.4818 1.12711 28.6333 1.41032C28.7264 1.58444 28.5815 1.75692 28.9094 1.69907L29.3513 3.90263C29.5877 3.78361 29.8627 3.65796 30.12 3.5979C31.303 3.32129 32.8586 3.30972 34.0571 3.46676C34.4389 3.51691 34.6676 3.76983 34.9712 3.87508C35.2252 3.96268 35.471 3.89106 35.7255 4.00347C35.9542 4.1043 36.0721 4.33128 36.2969 4.4784C36.5526 4.64591 37.3251 4.90434 37.4541 5.08453C37.4877 5.13136 37.7731 6.11331 37.7759 6.19486C37.7902 6.62906 37.3461 7.40324 37.0888 7.75645C35.8401 9.46903 33.4272 10.4013 31.5956 11.3959C29.3122 12.6363 27.0546 14.0425 24.6505 15.1578C23.9909 15.3253 23.3248 15.6085 22.6729 15.8223C22.2784 15.9518 21.8541 15.9337 21.4976 16.2455H21.6353C21.7367 16.375 20.9869 16.6902 20.8788 16.7288C20.4308 16.888 20.4413 16.7194 20.1878 16.7519C20.1239 16.7602 19.7299 16.9657 19.6379 17.0164C19.0345 17.3481 18.4052 17.5393 17.7132 17.7509C17.5148 17.8115 17.2684 17.8666 17.0624 17.8997C17.0519 17.9994 17.247 17.9564 17.3043 17.9482C17.4817 17.9223 17.695 17.8578 17.8625 17.7895L17.8889 17.898C14.3337 19.0579 10.5499 19.2337 6.88776 19.928L5.19832 19.9269C4.91464 19.8404 5.08965 19.5728 5.08096 19.5517C5.049 19.4773 4.72496 19.231 4.6346 19.2221C4.36401 19.1968 3.42457 19.5065 3.03776 19.5505C2.42337 19.62 1.76542 19.5814 1.16536 19.6172C0.8871 19.6338 0.449069 19.7633 0.215438 19.7583C0.108539 19.7561 -0.0292467 19.5737 0.00546771 19.4954C0.058917 19.3753 0.432545 19.2106 0.46781 19.1538C0.48705 19.1229 0.421525 19.0563 0.470555 18.9714C0.841394 18.3273 3.63177 17.8198 4.44508 17.5966C4.79607 17.5002 5.09968 17.2594 5.49035 17.4016C4.20702 15.5501 2.66803 13.8227 1.47617 11.9112C1.41611 11.8148 1.4084 11.6941 1.34945 11.5971C1.16155 11.2891 0.61658 10.8163 0.943336 10.5132C1.0018 10.4587 1.99635 9.92361 2.09112 9.89441C2.28452 9.83491 2.49501 9.92254 2.6796 9.99197C3.70835 10.3788 4.82143 10.937 5.79013 11.4549L8.46641 12.3872C8.38761 12.2291 8.14245 12.2357 8.01462 12.1652C7.51649 11.8891 6.91035 11.4709 6.53676 11.0367C6.2089 10.6554 5.29915 9.65749 5.1366 9.18857C5.0848 9.03924 5.10905 8.88715 5.03796 8.73672C4.97404 8.60172 4.79274 8.51741 4.74921 8.41988C4.68751 8.28269 4.72773 8.1196 4.682 7.98019C4.63958 7.85181 4.47815 7.6275 4.38943 7.51123C4.58721 7.48367 4.45609 7.26826 4.50567 7.21205C4.52109 7.19441 4.63186 7.23188 4.67043 7.1768C4.71672 7.10958 4.69191 6.96243 4.73544 6.893C4.79604 6.79658 5.04397 6.78832 5.10738 6.74039C5.2005 6.67041 5.06663 6.42959 5.43304 6.63401C5.94438 6.91944 6.33176 7.1046 6.85246 7.36358C7.48062 7.676 8.04379 8.04023 8.64991 8.37635C10.2815 9.28168 11.7919 9.77102 13.537 10.3771C13.8929 10.5011 14.2367 10.7843 14.6417 10.6549C15.7355 10.16 16.8866 9.80022 17.982 9.31201C18.2443 9.1952 18.678 8.87116 18.9237 8.81991C19.0108 8.80173 19.0797 8.86789 19.196 8.82271C19.3243 8.77312 19.4202 8.5797 19.5574 8.51798C20.9642 7.8832 22.3632 7.02082 23.7695 6.3381C24.5558 5.95625 25.3371 5.56451 26.1554 5.25263C26.2424 5.2069 26.1763 5.13361 26.1273 5.11541C25.9939 5.06692 26.092 5.24653 25.9911 5.22449C26.0021 5.11321 25.8749 5.10052 25.838 5.02119C25.7151 4.7545 25.7652 4.48227 25.7101 4.21172C25.6909 4.1175 25.5807 4.02383 25.6054 3.93513C25.6341 3.83429 25.9807 3.80948 25.984 3.71031C25.9845 3.68992 25.8771 3.475 25.8804 3.32292C25.8914 2.81819 25.9917 3.06228 26.1873 2.91681C26.3829 2.77131 26.4198 1.72058 26.4915 1.45111L26.2739 1.18604C26.4011 1.04552 26.3609 0.754581 26.4281 0.632812C26.4629 0.570584 26.5643 0.623985 26.5979 0.561728C26.6645 0.438835 26.6166 0.135808 26.7967 0.0581124C26.8474 0.0360715 27.1186 0.120384 27.2293 0.106058ZM33.209 4.12244C32.907 4.14614 32.5456 4.14285 32.2513 4.18363C31.8364 4.24093 30.7465 4.4338 30.3988 4.58974C30.0864 4.72968 30.2594 4.84431 30.2302 4.88564C30.1789 4.95838 29.4124 5.15229 29.2587 5.21346C28.7997 5.39585 27.9197 5.92542 27.5291 6.0224C27.4409 6.04443 27.3941 6.00253 27.3131 5.99592L27.588 6.16015L25.6044 7.18503C25.5327 7.23958 25.3514 7.13163 25.3299 7.15199C25.3133 7.16825 25.1993 7.64774 25.1641 7.15253C24.8368 7.15969 25.0268 7.31344 24.9767 7.37461C24.9403 7.41866 24.84 7.41041 24.7976 7.44677C24.2863 7.88482 24.0697 7.86501 23.5115 8.11682C23.1132 8.29645 22.7131 8.49095 22.3268 8.69593C22.0282 8.59785 22.6729 8.46669 22.7396 8.3361C22.7197 8.27114 22.6206 8.31903 22.5737 8.33556C21.9731 8.54826 21.3818 8.94666 20.8143 9.22107C19.6103 9.8035 18.3799 10.3127 17.1566 10.8532C17.0585 10.8967 16.6971 10.9926 16.6783 11.0097C16.5786 11.1006 16.6987 11.1034 16.761 11.1182C17.3765 11.2676 18.0636 11.234 18.6918 11.2274C19.1408 11.2224 19.0516 11.1871 19.4086 11.1226C20.0842 11.0009 21.0353 11.0593 21.7582 10.9425C22.561 10.8124 22.771 10.6438 23.4162 10.2813C23.7849 10.0741 24.1425 10.003 24.5579 10.073C24.5915 10.1644 24.5106 10.2664 24.5078 10.3248C24.5069 10.3446 24.7044 10.3518 24.613 10.4575C24.5938 10.4801 24.3232 10.4306 24.3932 10.6785L24.7227 10.5138C24.6913 10.6598 24.6318 10.9177 24.4472 10.8438L24.3926 10.7342C24.4593 10.9821 23.9359 11.013 23.802 11.1347C23.7402 11.191 23.6195 11.6841 23.4399 11.8202C23.3391 11.8963 23.0823 11.8676 22.9379 11.9519C22.7313 12.0731 22.3643 12.4864 22.1054 12.6628C21.2755 13.2276 20.5763 13.3691 19.704 13.789C19.4439 13.9146 19.197 14.021 18.9375 14.1334C18.6168 14.2723 18.5452 14.4872 18.1402 14.2607C18.0008 14.6255 17.9881 14.4177 17.7605 14.4453C17.5528 14.4701 17.382 14.6007 17.2459 14.626C16.8568 14.6993 16.1945 14.7318 15.7659 14.7798C14.6787 14.901 13.9662 14.6641 13.0295 14.4464C12.4845 14.3202 11.8431 13.9962 11.2358 13.8386C11.0116 13.7808 10.5377 13.6325 10.3416 13.6232C10.0958 13.6116 9.80543 13.8463 9.63846 13.8689C9.60594 13.8733 9.03643 13.8171 9.00204 13.8094C8.87751 13.7819 8.63337 13.5868 8.46641 13.519C6.71747 12.8121 5.0429 12.2219 3.34906 11.3629C3.22944 11.3023 2.64375 10.9188 2.60023 10.9155C2.5808 10.9139 2.25872 11.0554 2.24868 11.0719C2.11699 11.2846 2.44263 11.3607 2.54017 11.4555C3.94087 12.8187 5.38013 14.998 6.53342 16.6092C6.74005 16.8979 6.49102 16.9662 7.03488 16.823C7.92147 16.5899 8.63889 16.246 9.55027 16.1926C10.0544 16.1628 9.24453 16.8692 9.12931 16.9894L9.45938 17.072C9.57343 17.1585 8.51782 17.8891 8.43063 17.9438C8.03555 18.1934 7.59248 18.3796 7.21337 18.6105C6.83263 18.7152 6.30036 18.7868 5.94661 18.9317C5.71796 19.0254 6.01597 19.1009 6.1251 19.1108C6.91858 19.1824 7.94243 18.9885 8.72433 18.8579C8.89127 18.8304 9.10228 18.8904 9.20367 18.875C9.28852 18.8623 9.37725 18.7152 9.48634 18.7229C9.51444 18.7251 9.51392 18.8375 9.54091 18.8364C9.63293 18.8331 9.70071 18.6584 9.77235 18.6281C9.89578 18.5758 10.1531 18.6138 10.1669 18.6006C10.1806 18.5873 10.1719 18.421 10.2848 18.5069C10.2931 18.5135 10.2749 18.5846 10.2958 18.6028C10.3608 18.6601 10.6501 18.4898 10.7675 18.4628C11.643 18.2622 12.5501 18.0561 13.429 17.8181C14.1827 17.6142 14.9244 17.358 15.6859 17.1817L15.5079 17.1409C14.78 17.3167 14.0604 17.5498 13.3314 17.7201C12.868 17.8281 12.3627 17.9481 11.8916 18.0297C11.8111 18.0435 11.5202 18.1184 11.4998 18.0093C12.7627 17.7564 13.9645 17.3475 15.1906 16.9888C15.7779 16.8169 16.4056 16.721 16.9836 16.5227C17.7489 16.2604 18.5386 15.7893 19.2852 15.4631C21.2617 14.6002 23.3617 13.8403 25.2313 12.9234C25.725 12.6809 26.1972 12.3762 26.7058 12.1387C26.9846 12.0082 28.3043 11.5342 28.4019 11.3805C28.4261 11.3419 28.4129 11.278 28.4156 11.2312C28.5165 11.213 28.414 11.3563 28.5501 11.3436C28.6411 11.3353 29.1898 11.0075 28.938 11.0648C28.8251 11.0901 28.7452 11.2031 28.6603 11.2284C28.5573 11.2593 28.5534 11.1491 28.5804 11.1216C28.5921 11.1094 28.8019 11.0598 28.8697 11.0114C28.922 10.9739 28.9386 10.894 28.9992 10.8537C29.1402 10.7601 29.3254 10.7319 29.4345 10.5699C29.5446 10.5309 29.5078 10.6647 29.5199 10.6747C29.624 10.7584 29.6257 10.603 29.6455 10.5909C31.5278 9.4409 33.6256 8.61713 35.4853 7.41922C36.109 7.01752 36.9377 6.37395 36.4727 5.57001C36.1382 4.992 36.0071 5.19034 35.5194 5.03551C35.3877 4.99361 35.2136 4.75997 35.0995 4.74014C34.9766 4.71875 34.1738 5.34735 33.7022 5.20135C33.6184 5.17543 33.322 4.84043 33.322 4.81122C33.3221 4.78193 33.5892 4.57479 33.5385 4.4536C33.3231 4.3699 33.1401 4.78474 33.0129 4.50649C32.9214 4.30594 33.2156 4.29324 33.2079 4.12298L33.209 4.12244ZM17.1726 16.9618C16.7758 17.1266 16.2215 17.2021 15.8501 17.3767C15.8099 17.396 15.6463 17.4214 15.741 17.5123C15.7797 17.5492 16.5818 17.1498 16.7461 17.1679L17.1731 16.9618H17.1726ZM18.0834 16.5761C18.0024 16.629 17.8878 16.7139 17.7952 16.7298C17.7767 16.7331 17.3104 16.6858 17.5049 16.8511C17.5434 16.8836 18.0884 16.7078 18.1104 16.6852C18.1143 16.6806 18.1308 16.5689 18.0834 16.5761ZM19.5982 15.97C19.5001 15.9551 19.4053 15.9733 19.3783 16.0791C19.45 16.1017 19.6549 15.9964 19.5982 15.97ZM20.5349 15.5292C20.4369 15.5143 20.3421 15.5325 20.3151 15.6383C20.3867 15.6609 20.5917 15.5556 20.5349 15.5292ZM21.561 14.9847L20.9763 15.3077L21.2171 15.2459L21.8017 14.923L21.561 14.9847ZM26.2656 13.1598C26.1675 13.1449 26.0727 13.1631 26.0457 13.2689C26.1173 13.2915 26.3223 13.1862 26.2656 13.1598ZM5.21592 11.7822C5.03234 11.7689 3.94706 11.1249 3.89459 11.1755C3.79872 11.2687 3.96512 11.2913 4.00426 11.3105C4.33652 11.4725 4.70789 11.699 5.05007 11.8103C5.10407 11.828 5.22694 11.8858 5.21592 11.7822ZM30.6467 4.06847C30.5476 4.19463 30.1547 4.08115 30.1778 4.28775C30.2506 4.27286 30.6561 4.19519 30.6738 4.17701H30.6732C30.6776 4.17306 30.6936 4.06076 30.6467 4.06847Z" fill="#868686"/>
  <path d="M51.4967 5.80437V7.23703H46.1518V10.6534H50.5875C50.5935 10.6534 50.6701 10.73 50.6701 10.736V12.1411H46.1518V16.7146H44.6089V5.80437H51.4967Z" fill="#868686"/>
  <path d="M166.385 9.77283C166.443 9.85494 165.602 10.806 165.468 10.9234C164.715 10.3134 162.256 9.7271 161.745 10.7796C161.055 12.1995 163.346 11.9962 164.098 12.0871C165.346 12.2376 166.32 12.6442 166.439 14.0433C166.665 16.6937 164.083 17.1224 162.021 16.7537C161.216 16.6099 160.366 16.2121 159.786 15.6412L160.682 14.516C161.586 15.2329 162.701 15.6484 163.864 15.434C164.403 15.3349 164.935 15.0797 164.996 14.4675C165.116 13.2608 163.031 13.4559 162.233 13.3462C161.293 13.2167 160.344 12.8547 160.22 11.7775C159.796 8.10654 164.255 8.34568 166.385 9.77338L166.385 9.77283Z" fill="#868686"/>
  <path d="M145.666 9.99214C146.445 8.79036 148.103 8.44322 149.299 9.25157C149.849 9.6224 150.405 10.6842 150.405 11.3421V16.7146H148.862V11.5075C148.862 11.3058 148.529 10.7713 148.362 10.6302C147.624 10.0043 146.033 10.1784 145.759 11.2143C145.736 11.2992 145.666 11.6661 145.666 11.7279V16.7146H144.124V8.9452H145.666V9.99214Z" fill="#868686"/>
  <path d="M89.1866 16.7146V11.5626C89.1866 11.2534 88.8037 10.7233 88.553 10.5432C87.8807 10.061 86.5318 10.2026 86.1466 11.0016C86.118 11.0617 85.9912 11.4198 85.9912 11.4524V16.7146H84.4484V8.9452H85.9912V9.99214L86.5158 9.38712C88.2802 7.98642 90.73 9.29399 90.73 11.5075V16.7146H89.1866Z" fill="#868686"/>
  <path d="M54.3069 5.80437V14.9789C54.3069 15.0494 54.5951 15.3371 54.6651 15.3371H55.5191V16.7697H54.1691C53.5233 16.7697 52.764 15.7525 52.764 15.1442V5.80437H54.3069Z" fill="#868686"/>
  <path d="M133.709 5.80437V14.9789C133.709 15.0494 133.997 15.3371 134.067 15.3371H134.922V16.7697H133.627C132.905 16.7697 132.166 15.7663 132.166 15.0891V5.80437H133.709Z" fill="#868686"/>
  <path d="M119.328 16.7146H117.84V8.9452H119.328V9.99214C120.076 9.02675 121.008 8.59585 122.236 8.92977C122.414 8.97826 123.087 9.25432 123.067 9.4593C123.047 9.66428 122.255 10.5211 122.11 10.7625C121.328 9.92822 119.655 10.1382 119.395 11.3548C119.381 11.4209 119.328 11.7918 119.328 11.8381V16.7146Z" fill="#868686"/>
  <path d="M115.801 8.9452H114.258V16.7146H115.801V8.9452Z" fill="#868686"/>
  <path d="M82.409 8.9452H80.9213V16.7146H82.409V8.9452Z" fill="#868686"/>
  <path d="M115.801 5.80437H114.258V7.34723H115.801V5.80437Z" fill="#868686"/>
  <path d="M82.409 5.80437H80.9213V7.34723H82.409V5.80437Z" fill="#868686"/>
  <path fill-rule="evenodd" clip-rule="evenodd" d="M94.574 8.84989C95.6837 8.63884 96.4805 9.01682 97.1765 9.82682V8.94518H98.7193V17.1279C98.7193 17.5125 98.3612 18.366 98.1358 18.6933C97.0167 20.32 93.8207 20.3668 92.7231 18.6702C92.8829 18.5572 93.6736 17.734 93.7855 17.7615C94.4891 18.8498 96.3764 18.917 96.9946 17.718C97.031 17.6474 97.1759 17.2844 97.1759 17.2381V15.833C95.8573 17.615 93.2195 17.0673 92.6735 14.9078C92.4663 14.0879 92.4592 11.8099 92.619 10.9724C92.8239 9.89792 93.4642 9.06093 94.574 8.84989ZM97.0922 11.0958C96.8277 10.3139 96.0375 10.1183 95.2898 10.2269C94.7663 10.3029 94.3343 10.7101 94.1751 11.206C93.9657 11.8568 93.9805 13.6101 94.1155 14.2928C94.439 15.9305 97.0266 15.9052 97.1781 14.1546C97.2272 13.592 97.2465 11.5527 97.0922 11.0958Z" fill="#868686"/>
  <path fill-rule="evenodd" clip-rule="evenodd" d="M107.781 5.8005C108.006 5.84623 108.944 5.7283 109.052 5.85834L113.046 16.7146H111.393L110.616 14.3507L106.239 14.3413L106.152 14.3777L105.304 16.7146H103.734L107.781 5.8005ZM106.709 12.8575H110.07L108.417 7.95336L106.709 12.8575Z" fill="#868686"/>
  <path fill-rule="evenodd" clip-rule="evenodd" d="M125.609 9.93706C126.316 9.01575 127.275 8.62397 128.431 8.9061C130.525 9.418 130.4 12.291 130.296 13.9898C130.196 15.6131 129.358 16.8574 127.611 16.859C126.734 16.8601 126.09 16.4915 125.609 15.7779V19.9106H124.066V8.94522H125.609V9.93706ZM128.744 11.6237C128.619 10.5586 127.837 10.0869 126.808 10.2269C126.271 10.3002 125.817 10.6649 125.689 11.2011C125.539 11.8243 125.534 14.1386 125.782 14.6962C126.291 15.8429 128.261 15.7178 128.655 14.4433C128.81 13.9424 128.81 12.1857 128.744 11.6237Z" fill="#868686"/>
  <path fill-rule="evenodd" clip-rule="evenodd" d="M66.2646 9.93628C67.4347 8.28514 69.9698 8.46775 70.6993 10.4335C71.0585 11.4022 71.0635 14.0725 70.7555 15.0615C70.2188 16.784 68.251 17.3654 66.7892 16.3823L66.2646 15.7773V19.91H64.7218V8.94519H66.2646V9.93628ZM69.249 11.1124C68.9371 10.3448 68.1888 10.104 67.4069 10.2258H67.4063C66.901 10.304 66.4977 10.6748 66.3561 11.1592C66.1814 11.7581 66.1935 14.0823 66.4194 14.6576C66.8845 15.8418 68.9106 15.7354 69.3107 14.4444C69.4881 13.874 69.4727 11.6628 69.249 11.1124Z" fill="#868686"/>
  <path fill-rule="evenodd" clip-rule="evenodd" d="M74.7791 9.44275C76.258 8.24595 78.3006 8.79257 78.8417 10.6666C79.1222 11.6375 79.1073 14.526 78.6896 15.4473C77.9232 17.1389 75.4111 17.367 74.3641 15.833V19.9106H72.8213V8.94522H74.3641V9.93706L74.7791 9.44275ZM77.4145 11.3774C77.1853 10.433 76.4326 10.0924 75.508 10.2269H75.5086C74.8529 10.3222 74.4181 10.8611 74.3624 11.5053C74.3134 12.0679 74.2941 14.1077 74.4484 14.564C74.8694 15.8087 76.9385 15.768 77.3655 14.5089C77.5771 13.884 77.5721 12.026 77.4145 11.3774Z" fill="#868686"/>
  <path fill-rule="evenodd" clip-rule="evenodd" d="M152.35 11.2485C152.759 9.47806 154.163 8.66361 155.936 8.84159C158.181 9.06751 158.703 11.5995 158.616 13.4636H153.656C153.727 13.7203 153.725 13.9595 153.806 14.2229C154.269 15.7283 156.43 15.6908 157.376 14.6769L158.394 15.6952C156.634 17.4756 153.049 17.2893 152.361 14.5662C152.143 13.7044 152.15 12.1153 152.35 11.2485ZM157.128 12.1962C157.177 9.48907 153.658 9.57447 153.711 12.1962H157.128Z" fill="#868686"/>
  <path fill-rule="evenodd" clip-rule="evenodd" d="M56.8962 9.96183C57.8021 8.69614 60.1494 8.51653 61.4311 9.23065C62.4571 9.80206 62.683 10.79 62.7392 11.8899C62.8202 13.4724 62.6742 15.1244 62.737 16.7135L62.7376 16.7146H61.2498C61.2222 16.7146 61.2917 16.2297 61.2222 16.1636C61.0702 16.3283 60.9027 16.4766 60.7004 16.5785C59.7731 17.0485 57.9839 16.9207 57.1711 16.2462C56.3088 15.531 56.2305 13.7612 56.9231 12.9115C57.2267 12.5384 57.9922 12.1406 58.4666 12.1406H61.2493C61.4421 10.3668 60.0877 9.80647 58.5757 10.3762C58.4445 10.4258 58.005 10.6896 57.9707 10.6897C57.8258 10.6897 57.0857 10.0643 56.8962 9.96183ZM58.7983 13.3539C58.7002 13.3539 58.315 13.5264 58.223 13.6052C57.7728 13.9898 57.8114 14.9491 58.2776 15.3068C58.8098 15.7151 60.1708 15.6864 60.7742 15.4401C60.9412 15.3718 61.2498 15.1795 61.2498 14.9789V13.3539H58.7983ZM61.2498 13.3539H61.2503L61.2498 13.3534V13.3539Z" fill="#868686"/>
  <path fill-rule="evenodd" clip-rule="evenodd" d="M136.689 9.5276C138.516 8.063 142.139 8.77055 142.139 11.562V16.7141L142.14 16.7146H140.652C140.625 16.7144 140.694 16.2297 140.625 16.1636C140.472 16.3284 140.305 16.4766 140.103 16.5785C139.138 17.0672 137.16 16.9262 136.408 16.0815C135.617 15.1944 135.673 13.3093 136.666 12.5908C136.901 12.4205 137.593 12.1406 137.869 12.1406H140.652C140.84 10.3641 139.497 9.8037 137.978 10.3762C137.847 10.4258 137.407 10.6898 137.373 10.6898C137.31 10.6897 136.359 10.0456 136.324 9.99269C136.254 9.88579 136.602 9.59758 136.689 9.5276ZM138.201 13.3539C138.103 13.3539 137.717 13.5264 137.625 13.6052C137.184 13.9826 137.221 14.9547 137.68 15.3068C138.229 15.7283 139.934 15.7277 140.46 15.283C140.506 15.2439 140.652 15.0715 140.652 15.034V13.3539H138.201ZM140.652 13.3539H140.653L140.652 13.3534V13.3539Z" fill="#868686"/>
</svg>