<svg xmlns="http://www.w3.org/2000/svg" width="73" height="20" viewBox="0 0 73 20" fill="none">
  <g clip-path="url(#clip0_786_1470)">
    <mask id="mask0_786_1470" style="mask-type:luminance" maskUnits="userSpaceOnUse" x="1" y="0" width="70" height="20">
      <path d="M1.94501 0.000976562H70.0789V19.4511H1.94501V0.000976562Z" fill="white"/>
    </mask>
    <g mask="url(#mask0_786_1470)">
      <path d="M6.9026 6.55179C5.18321 6.55179 4.33907 8.07863 4.33907 10.1199V15.2314H1.91364V4.4434H4.29628V7.24228H4.33713C4.84672 5.52094 5.8591 4.13025 7.42387 4.13025C8.52475 4.13025 8.98669 4.51828 8.98669 4.51828L7.89262 6.74046C7.89262 6.74046 7.54446 6.55179 6.9026 6.55179ZM36.213 8.0339V15.2314H33.8518V8.91013C33.8518 7.0964 33.2877 6.13556 31.8445 6.13556C30.4013 6.13556 29.6272 7.35217 29.6272 9.6823V15.2314H27.2864V8.91013C27.2864 7.16545 26.7282 6.13556 25.2995 6.13556C23.6696 6.13556 23.0424 7.57487 23.0424 9.6823V15.2314H20.6597V4.4434H23.0424V6.88634H23.0637C23.4333 5.19709 24.4486 4.15262 26.1583 4.15262C27.8679 4.15262 28.9572 5.06969 29.3773 6.70059C29.776 5.13193 30.8399 4.15262 32.4718 4.15262C34.7484 4.15262 36.213 5.59096 36.213 8.03292M13.752 4.13317C11.559 4.13317 10.1265 5.17083 9.47294 7.04388L11.4899 7.78493C11.8575 6.65488 12.6248 6.01205 13.7948 6.01205C15.1125 6.01205 15.8847 6.5975 15.8847 7.49318C15.8847 8.38984 15.2691 8.60184 13.8774 8.82941C12.3311 9.08032 8.6502 9.16395 8.6502 12.2915C8.6502 14.1257 10.1693 15.5047 12.4537 15.5047C14.1702 15.5047 15.342 14.7967 15.8827 13.4799H15.9041V15.2344H18.2654V8.5999C18.2654 5.69599 16.8154 4.13608 13.75 4.13608L13.752 4.13317ZM15.9469 10.153C15.9469 12.417 14.8363 13.8699 13.0625 13.8699C11.8079 13.8699 11.0542 13.16 11.0542 12.1369C11.0542 11.1761 11.8284 10.5118 13.3124 10.2366C14.8295 9.9546 15.5939 9.60839 15.945 8.77689V10.1559L15.9469 10.153ZM44.6165 4.15262C42.8105 4.15262 41.6153 5.1543 41.1057 6.65683V4.4434H38.5976V19.3831H41.0843V13.0161H41.1057C41.6591 14.646 42.8125 15.5426 44.6165 15.5426C47.4795 15.5426 49.5277 13.1649 49.5277 9.80484C49.5277 6.46816 47.4795 4.15262 44.6165 4.15262ZM43.998 13.5422C42.0141 13.5422 40.9151 12.0912 40.9151 9.83693C40.9151 7.5846 42.1473 6.13362 43.998 6.13362C45.8487 6.13362 47.0808 7.65365 47.0808 9.8379C47.0808 12.0222 45.8496 13.5422 43.998 13.5422ZM70.0476 15.1838V15.2519H60.339V15.1838C61.7385 14.3863 62.7042 13.5753 63.5746 12.7272H67.5618L70.0476 15.1838ZM67.6426 2.43419L65.1841 0.000976562H65.1121C65.1121 0.000976562 65.1529 4.53676 61.0227 8.66214C56.981 12.698 52.2254 12.7078 52.2254 12.7078V12.7797L54.7325 15.2557C54.7325 15.2557 59.419 15.3044 63.5571 11.2101C67.6805 7.13044 67.6465 2.43614 67.6465 2.43614L67.6426 2.43419Z" fill="#868686"/>
    </g>
  </g>
  <defs>
    <clipPath id="clip0_786_1470">
      <rect width="72.9381" height="19.4502" fill="white"/>
    </clipPath>
  </defs>
</svg>