<svg xmlns="http://www.w3.org/2000/svg" width="112" height="22" viewBox="0 0 112 22" fill="none">
  <mask id="mask0_793_3781" style="mask-type:luminance" maskUnits="userSpaceOnUse" x="0" y="0" width="112" height="22">
    <path d="M0 0H111.757V22H0V0Z" fill="white"/>
  </mask>
  <g mask="url(#mask0_793_3781)">
    <path d="M17.9687 3.96094H3.28696V17.6009H17.9687V3.96094Z" fill="#0E0E0E"/>
    <path d="M12.18 12.8583H9.11217V12.0883H12.18V12.8583ZM12.18 9.48191H9.11217V8.71191H12.18V9.48191Z" fill="#868686"/>
    <path fill-rule="evenodd" clip-rule="evenodd" d="M21.913 22H0V0H21.913V22ZM6.07478 16.2598H14.0986L15.9156 14.4357V12.3078L14.4011 10.7879L15.6124 9.57183V7.59611L13.7955 5.77256H6.07478V16.2598Z" fill="#868686"/>
    <path d="M27.8296 16.1163V6.07451H31.2705C31.6091 6.07273 31.9447 6.13825 32.2579 6.26729C32.5711 6.39632 32.8558 6.58632 33.0955 6.82634C33.3353 7.06635 33.5253 7.35163 33.6548 7.66573C33.7842 7.97983 33.8504 8.31654 33.8496 8.65645V9.2309C33.8496 9.88968 33.6067 10.5063 33.1916 10.953C33.4877 11.1963 33.7262 11.5026 33.8899 11.8498C34.0536 12.197 34.1384 12.5764 34.1381 12.9605V13.535C34.1388 13.8749 34.0725 14.2116 33.943 14.5256C33.8136 14.8397 33.6234 15.1249 33.3836 15.3649C33.1438 15.6048 32.8591 15.7948 32.5458 15.9237C32.2326 16.0527 31.897 16.1181 31.5584 16.1163H27.8296ZM29.2618 14.6826H31.556C32.2018 14.6826 32.7028 14.1815 32.7028 13.5343V12.9599C32.7047 12.8083 32.6763 12.658 32.6193 12.5176C32.5623 12.3773 32.4778 12.2498 32.3709 12.1428C32.264 12.0358 32.1368 11.9515 31.9968 11.8947C31.8568 11.8379 31.707 11.8098 31.556 11.8122H29.2612L29.2618 14.6826ZM29.2618 10.3786H31.2675C31.9139 10.3786 32.4143 9.87745 32.4143 9.23029V8.65645C32.4162 8.50485 32.3879 8.35439 32.3309 8.21398C32.274 8.07357 32.1895 7.94606 32.0826 7.839C31.9757 7.73193 31.8484 7.64749 31.7084 7.59067C31.5684 7.53384 31.4185 7.50579 31.2675 7.50818H29.2618V10.3786ZM35.6209 16.1163V8.80801H37.0464V9.91229L38.6595 8.80801H39.0734C40.387 8.80801 41.4717 9.95506 41.4717 11.3869V11.9601H40.0455V11.3869C40.0455 10.7556 39.6468 10.2398 39.0758 10.2398H38.9462L37.0495 11.514V16.1132H35.6239L35.6209 16.1163ZM44.9571 16.1163C43.5303 16.1163 42.3877 14.9845 42.3877 13.5496V11.3863C42.3865 11.0473 42.4522 10.7113 42.5809 10.3979C42.7096 10.0845 42.8988 9.79971 43.1377 9.56003C43.3765 9.32036 43.6602 9.13052 43.9725 9.00145C44.2847 8.87238 44.6194 8.80664 44.9571 8.80801H46.0996C46.4373 8.80663 46.772 8.8724 47.0843 9.00151C47.3966 9.13061 47.6803 9.32051 47.9192 9.56025C48.158 9.79999 48.3472 10.0848 48.4759 10.3983C48.6046 10.7118 48.6702 11.0478 48.6689 11.3869V13.5496C48.6689 14.9815 47.5264 16.1163 46.1002 16.1163H44.9571ZM43.8145 13.5527C43.8145 14.1986 44.3137 14.6692 44.9571 14.6838H46.0996C46.7436 14.6838 47.2421 14.1956 47.2421 13.5527V11.3893C47.2442 11.2381 47.2161 11.0881 47.1595 10.948C47.1028 10.8079 47.0187 10.6806 46.9122 10.5737C46.8056 10.4668 46.6788 10.3824 46.5393 10.3256C46.3997 10.2688 46.2502 10.2407 46.0996 10.2429H44.9571C44.8065 10.241 44.6572 10.2694 44.5178 10.3263C44.3783 10.3833 44.2517 10.4676 44.1452 10.5744C44.0387 10.6813 43.9546 10.8084 43.8978 10.9483C43.8411 11.0883 43.8127 11.2382 43.8145 11.3893V13.5527ZM51.2656 16.1163L49.9094 12.1025V8.80862H51.335V11.6747L52.0484 13.953L53.2627 10.0968H54.4314L55.6427 13.953L56.3561 11.6747V8.80862H57.7817V12.1025L56.4255 16.1157H55.2111L53.8428 12.691L52.4738 16.1157H51.2595L51.2656 16.1163ZM61.3267 16.1163C59.9419 16.1163 58.9138 15.2118 58.9138 13.9957V13.7103H60.3406V13.9957C60.3406 14.4541 60.7125 14.7841 61.3267 14.7841H62.6269C63.2977 14.7841 63.6276 14.5109 63.6276 14.0953C63.6276 12.4759 59.0137 13.5221 59.0137 10.7434C59.0137 9.58168 59.9419 8.80801 61.2993 8.80801H62.5271C63.812 8.80801 64.8127 9.73934 64.8127 10.9438V11.074H63.3853V10.9438C63.3853 10.4855 63.0286 10.1396 62.5301 10.1396H61.3024C60.7034 10.1396 60.4465 10.3822 60.4465 10.7403C60.4465 11.9021 65.0604 11.1712 65.0604 14.0923C65.0604 15.2968 64.075 16.1132 62.6324 16.1132H61.3328L61.3267 16.1163ZM68.7625 16.1163C67.3479 16.1163 66.1932 14.9417 66.1932 13.5221V11.3869C66.1932 11.0482 66.2597 10.7128 66.3888 10.3999C66.5179 10.0869 66.7072 9.80261 66.9458 9.56313C67.1844 9.32365 67.4676 9.13371 67.7793 9.00414C68.0911 8.87457 68.4252 8.80793 68.7625 8.80801H69.9051C70.5633 8.80385 71.1978 9.05476 71.6764 9.50851C72.155 9.96226 72.4408 10.5839 72.4744 11.2439V12.7912H67.62V13.5221C67.62 14.1534 68.1337 14.6692 68.7625 14.6692H69.9051C70.2079 14.6687 70.4982 14.5477 70.7124 14.3327C70.9266 14.1177 71.0471 13.8262 71.0476 13.5221V13.3797H72.4744V13.5221C72.4744 14.9417 71.3318 16.1157 69.9051 16.1157L68.7625 16.1163ZM67.62 11.6472H71.0476V11.3893C71.0497 11.2381 71.0216 11.0881 70.9649 10.948C70.9083 10.8079 70.8242 10.6806 70.7177 10.5737C70.6111 10.4668 70.4843 10.3824 70.3447 10.3256C70.2052 10.2688 70.0556 10.2407 69.9051 10.2429H68.7625C68.6123 10.242 68.4634 10.271 68.3244 10.3283C68.1854 10.3856 68.0591 10.47 67.9529 10.5767C67.8466 10.6833 67.7625 10.81 67.7053 10.9495C67.6482 11.089 67.6192 11.2385 67.62 11.3893V11.6472ZM74.0381 16.1163V8.80801H75.4637V9.91229L77.0761 8.80801H77.49C78.8042 8.80801 79.8883 9.95506 79.8883 11.3869V11.9601H78.4627V11.3869C78.4627 10.7556 78.064 10.2398 77.493 10.2398H77.3664L75.4697 11.514V16.1132H74.0442L74.0381 16.1163ZM83.6591 16.1169L82.474 15.3127V16.1169H81.0472V5.93945H82.474V9.60795L83.6591 8.80434H84.7597C85.0971 8.80402 85.4313 8.8705 85.7431 8.99998C86.055 9.12946 86.3383 9.3194 86.5769 9.55893C86.8156 9.79846 87.0048 10.0829 87.1339 10.3959C87.2629 10.7089 87.3292 11.0444 87.329 11.3832V13.5343C87.3269 14.2178 87.0555 14.8726 86.5741 15.3558C86.0927 15.839 85.4404 16.1113 84.7597 16.1132H83.6591V16.1169ZM82.474 13.5802L84.1004 14.6845H84.7566C85.0595 14.684 85.3498 14.563 85.564 14.348C85.7781 14.1329 85.8987 13.8415 85.8991 13.5374V11.3863C85.8987 11.0822 85.7781 10.7907 85.564 10.5757C85.3498 10.3607 85.0595 10.2397 84.7566 10.2392H84.1004L82.474 11.3441V13.5802ZM91.2039 16.1163C89.7832 16.1163 88.6231 14.954 88.6231 13.5374V11.3863C88.6231 9.95506 89.7863 8.80801 91.2039 8.80801H92.3087L93.4987 9.61223V8.80801H94.9316V16.1157H93.4987V15.3121L92.3087 16.1163H91.2039ZM90.0559 13.5374C90.0559 14.1687 90.5721 14.6838 91.2039 14.6838H91.8625L93.4957 13.5802V11.3441L91.8625 10.2398H91.2039C90.9004 10.2398 90.6092 10.3605 90.3941 10.5755C90.179 10.7904 90.0574 11.0822 90.0559 11.3869V13.5374ZM98.7737 16.1163C97.3889 16.1163 96.3608 15.2118 96.3608 13.9957V13.7103H97.7882V13.9957C97.7882 14.4541 98.1595 14.7841 98.7737 14.7841H100.074C100.745 14.7841 101.075 14.5109 101.075 14.0953C101.075 12.4759 96.4606 13.5221 96.4606 10.7434C96.4606 9.58168 97.3889 8.80801 98.7463 8.80801H99.974C101.259 8.80801 102.26 9.73934 102.26 10.9438V11.074H100.832V10.9438C100.832 10.4855 100.476 10.1396 99.9771 10.1396H98.7493C98.1504 10.1396 97.8935 10.3822 97.8935 10.7403C97.8935 11.9021 102.507 11.1712 102.507 14.0923C102.507 15.2968 101.522 16.1132 100.08 16.1132H98.7797L98.7737 16.1163ZM106.209 16.1163C104.794 16.1163 103.64 14.9417 103.64 13.5221V11.3869C103.64 11.0482 103.706 10.7128 103.835 10.3999C103.964 10.0869 104.154 9.80261 104.392 9.56313C104.631 9.32365 104.914 9.13371 105.226 9.00414C105.537 8.87457 105.871 8.80793 106.209 8.80801H107.351C108.01 8.80429 108.644 9.05534 109.122 9.50898C109.601 9.96263 109.887 10.584 109.921 11.2439V12.7912H105.066V13.5221C105.066 14.1534 105.58 14.6692 106.209 14.6692H107.351C107.654 14.6687 107.945 14.5477 108.159 14.3327C108.373 14.1177 108.493 13.8262 108.494 13.5221V13.3797H109.921V13.5221C109.921 14.9417 108.778 16.1157 107.351 16.1157L106.209 16.1163ZM105.066 11.6472H108.494V11.3893C108.496 11.2381 108.468 11.0881 108.411 10.948C108.355 10.8079 108.271 10.6806 108.164 10.5737C108.057 10.4668 107.931 10.3824 107.791 10.3256C107.652 10.2688 107.502 10.2407 107.351 10.2429H106.209C106.059 10.242 105.91 10.271 105.771 10.3283C105.632 10.3856 105.505 10.47 105.399 10.5767C105.293 10.6833 105.209 10.81 105.152 10.9495C105.095 11.089 105.066 11.2385 105.066 11.3893V11.6472Z" fill="#868686"/>
  </g>
</svg>