<svg width="110" height="17" viewBox="0 0 110 17" fill="none" xmlns="http://www.w3.org/2000/svg">
<g clip-path="url(#clip0_1780_8)">
<path d="M107.193 0L105.289 0.00906593C106.975 2.21511 107.803 5.28544 107.818 8.45852C107.803 11.6316 106.972 14.6959 105.289 16.908L107.193 16.914C108.834 14.8802 109.988 11.6255 110.003 8.45852C109.988 5.28846 108.837 2.03379 107.193 0ZM2.81044 0.00906593C1.16648 2.04286 0.0151099 5.29753 0 8.46154C0.0151099 11.6376 1.16648 14.8863 2.80742 16.9231L4.71126 16.914C3.025 14.7049 2.19698 11.6376 2.18187 8.46456C2.19698 5.29148 3.02802 2.2272 4.71126 0.0151099L2.81044 0.00906593ZM101.931 1.03654C101.757 1.02693 101.582 1.05427 101.418 1.11678C101.255 1.17929 101.106 1.27557 100.983 1.39933C100.859 1.52309 100.763 1.67155 100.7 1.83502C100.638 1.9985 100.61 2.17332 100.62 2.34808C100.611 2.52272 100.638 2.69733 100.701 2.86058C100.764 3.02384 100.86 3.17211 100.984 3.29576C101.107 3.41942 101.256 3.51571 101.419 3.57839C101.582 3.64107 101.757 3.66875 101.931 3.65962C102.106 3.66831 102.28 3.64031 102.443 3.57743C102.606 3.51456 102.754 3.4182 102.877 3.29459C103 3.17098 103.096 3.02287 103.159 2.85983C103.221 2.69679 103.249 2.52245 103.24 2.34808C103.249 2.1737 103.221 1.99936 103.159 1.83632C103.096 1.67328 103 1.52517 102.877 1.40156C102.754 1.27795 102.606 1.1816 102.443 1.11872C102.28 1.05584 102.106 1.02785 101.931 1.03654ZM16.4063 1.15137V14.8258H18.4915V9.39231C18.4915 7.62747 19.1714 6.81154 20.6582 6.81154C22.1451 6.81154 22.8038 7.60934 22.8038 9.39231V14.8258H24.889V9.39231C24.889 6.52445 23.6893 5.02555 21.5044 5.02555C20.9266 5.00988 20.3543 5.14112 19.8411 5.40698C19.3279 5.67284 18.8905 6.06461 18.5701 6.5456H18.4945V1.15137H16.4063ZM64.1868 2.29066V4.47555C64.1868 4.8956 63.9451 5.14038 63.528 5.14038H62.2679V6.81154H64.0931V12.0698C64.0931 13.8558 65.0511 14.8258 66.822 14.8258H68.6835V13.1577H67.1212C66.5198 13.1577 66.1813 12.8132 66.1813 12.2058V6.81154H68.6835V5.14038H66.1813V2.29066H64.1868ZM42.1657 5.02555C40.2618 5.02555 39.1165 5.84148 38.6451 6.82967H38.5695V5.14038H36.575V14.8258H38.6632V10.0964C38.6632 7.85412 39.7753 7.07445 41.5038 7.07445H42.1657V5.02555ZM74.3346 5.02555C71.3791 5.02555 69.4813 6.96566 69.4813 10.0027C69.4813 13.0429 71.3821 14.9407 74.3346 14.9407C76.8731 14.9407 78.4566 13.6291 78.7165 11.7887H76.6857C76.4772 12.6409 75.7459 13.2302 74.3346 13.2302C72.7148 13.2302 71.775 12.2813 71.6239 10.6857H78.7558V9.98462C78.7558 6.92637 77.0604 5.02555 74.3346 5.02555ZM85.8635 5.02555C83.9626 5.02555 82.8143 5.84148 82.3459 6.82967H82.2703V5.14038H80.2758V14.8258H82.361V10.0964C82.361 7.85412 83.4731 7.07445 85.2047 7.07445H85.8635V5.02555ZM30.8635 5.02555C28.4761 5.02555 26.9681 6.22225 26.7989 8.29231H28.8327C28.9445 7.30412 29.6788 6.73599 30.8091 6.73599C31.9363 6.73599 32.5951 7.26786 32.5951 8.23791C32.5951 8.73049 32.444 8.86346 31.7882 8.9783C30.2258 9.22308 29.0382 9.3772 28.2887 9.625C27.0648 10.0209 26.406 10.8942 26.406 12.1514C26.406 13.8799 27.5907 14.9437 29.5489 14.9437C30.8453 14.9437 31.9574 14.3695 32.6162 13.3451H32.6918V14.8258H34.6863V8.76978C34.6863 6.35522 33.3113 5.02555 30.8665 5.02555H30.8635ZM47.1217 5.02555C44.7343 5.02555 43.2294 6.22225 43.0602 8.29231H45.0909C45.2058 7.30412 45.9371 6.73599 47.0673 6.73599C48.1945 6.73599 48.8533 7.26786 48.8533 8.23791C48.8533 8.73049 48.7022 8.86346 48.0464 8.9783C46.4841 9.22308 45.2964 9.3772 44.547 9.625C43.3231 10.0209 42.6643 10.8942 42.6643 12.1514C42.6643 13.8799 43.8489 14.9437 45.8071 14.9437C47.1066 14.9437 48.2157 14.3695 48.8744 13.3451H48.95V14.8258H50.9445V8.76978C50.9445 6.35522 49.5695 5.02555 47.1247 5.02555H47.1217ZM95.0412 5.02555C92.6266 5.02555 91.1096 6.22225 90.9374 8.29231H92.9923C93.1041 7.30714 93.8445 6.73599 94.9838 6.73599C96.1231 6.73599 96.7879 7.26786 96.7879 8.23791C96.7879 8.73049 96.6368 8.86346 95.972 8.9783C94.3945 9.22308 93.2008 9.3772 92.4393 9.625C91.2063 10.0209 90.5415 10.8942 90.5415 12.1514C90.5415 13.8799 91.7382 14.9437 93.7146 14.9437C95.0231 14.9437 96.1442 14.3695 96.8091 13.3451H96.8846V14.8258H98.8972V8.76978C98.8972 6.35522 97.5071 5.02555 95.0412 5.02555ZM10.4168 5.02555C7.53983 5.02555 5.58159 7.04121 5.58159 10.0027C5.58159 12.9673 7.48544 14.9407 10.4168 14.9407C12.9401 14.9407 14.575 13.5173 14.8198 11.408H12.789C12.5049 12.7195 11.7706 13.2332 10.4168 13.2332C8.72445 13.2332 7.70604 12.0365 7.70604 9.99972C7.70604 7.96896 8.7033 6.73599 10.4168 6.73599C11.7162 6.73599 12.4868 7.30714 12.6923 8.55824H14.7261C14.5387 6.45192 12.8464 5.02555 10.4168 5.02555ZM57.1124 5.02555C54.2324 5.02555 52.2772 7.04121 52.2772 10.0027C52.2772 12.9673 54.178 14.9407 57.1124 14.9407C59.6327 14.9407 61.2676 13.5173 61.5124 11.408H59.4816C59.2005 12.7195 58.4662 13.2332 57.1093 13.2332C55.417 13.2332 54.3986 12.0365 54.3986 9.99972C54.3986 7.96896 55.3959 6.73599 57.1093 6.73599C58.4088 6.73599 59.1794 7.30714 59.3879 8.55824H61.4187C61.2313 6.45192 59.539 5.02555 57.1124 5.02555ZM100.862 5.14038V14.8258H102.968V5.14038H100.862ZM74.3407 6.73599C75.7126 6.73599 76.6162 7.64863 76.7099 9.14753H71.6511C71.8385 7.57005 72.7602 6.73599 74.3407 6.73599ZM32.5981 10.3231V10.6102C32.6056 10.96 32.5419 11.3076 32.4111 11.6321C32.2802 11.9565 32.0848 12.251 31.8367 12.4977C31.5886 12.7444 31.293 12.9382 30.9677 13.0672C30.6425 13.1962 30.2945 13.2578 29.9448 13.2484C29.0231 13.2484 28.5154 12.8313 28.5154 12.0698C28.5154 11.4442 28.8176 11.0635 29.4371 10.858C30.0566 10.6464 31.8637 10.5558 32.5981 10.3231ZM48.8563 10.3231V10.6102C48.8638 10.96 48.8002 11.3076 48.6693 11.6321C48.5384 11.9565 48.343 12.251 48.0949 12.4977C47.8468 12.7444 47.5512 12.9382 47.226 13.0672C46.9008 13.1962 46.5528 13.2578 46.203 13.2484C45.2813 13.2484 44.7736 12.8313 44.7736 12.0698C44.7736 11.4442 45.0758 11.0635 45.6953 10.858C46.3179 10.6464 48.122 10.5558 48.8563 10.3231ZM96.7909 10.3231V10.6102C96.7909 12.1091 95.6516 13.2484 94.1135 13.2484C93.1827 13.2484 92.6689 12.8313 92.6689 12.0698C92.6689 11.4442 92.9742 11.0635 93.5997 10.858C94.2253 10.6464 96.0505 10.5558 96.7909 10.3231ZM87.1055 11.9549C86.2533 11.9549 85.6429 12.5835 85.6429 13.478C85.6429 14.3695 86.2533 14.9407 87.1055 14.9407C87.9607 14.9407 88.55 14.3332 88.55 13.478C88.55 12.6198 87.9607 11.958 87.1055 11.958V11.9549Z" fill="#868686"/>
</g>
<defs>
<clipPath id="clip0_1780_8">
<rect width="110" height="16.9231" fill="white"/>
</clipPath>
</defs>
</svg>
