<svg xmlns="http://www.w3.org/2000/svg" width="96" height="19" viewBox="0 0 96 19" fill="none">
  <path d="M27.6797 1.15893C28.0904 1.66961 28.0647 2.36635 27.6193 2.85328C27.3778 3.12148 27.0383 3.28181 26.6781 3.29864C26.3179 3.31546 25.9645 3.18779 25.6993 2.94334C25.4123 2.67612 25.2638 2.3426 25.2638 1.96355C25.2638 1.34895 25.7221 0.791753 26.3386 0.656165C26.8444 0.556206 27.364 0.751175 27.6797 1.15893ZM75.4936 0.637361C75.6183 0.633402 75.742 0.653196 75.8598 0.694763C76.2804 0.83332 76.61 1.16388 76.7475 1.58548C76.7941 1.70326 76.8139 1.82994 76.805 1.95662C76.8069 2.33765 76.6892 2.61674 76.4091 2.89386C76.1409 3.15909 75.8766 3.27588 75.5025 3.29468C75.2244 3.30854 74.9938 3.25014 74.7424 3.10367C74.6128 3.02746 74.3733 2.78895 74.2971 2.6593C74.0744 2.28223 74.0397 1.84973 74.203 1.46078C74.3901 1.0461 74.7622 0.744247 75.2066 0.647258C75.3016 0.636371 75.3976 0.633402 75.4936 0.637361ZM69.2289 3.28379C69.791 3.02252 70.2572 2.80775 70.2641 2.80775C70.271 2.80676 70.2779 3.40751 70.2779 4.14087V5.47695H73.3331V6.58936H70.276L70.2819 9.45946C70.2878 12.3207 70.2878 12.3296 70.3264 12.4948C70.4007 12.8185 70.559 13.053 70.7837 13.1718C70.9697 13.2569 71.1696 13.3104 71.3735 13.3301C71.5794 13.3519 72.3791 13.342 72.6581 13.3123L72.9382 13.2836L73.0669 13.2708V13.6162C73.0669 13.8072 73.06 13.9675 73.052 13.9725C72.674 14.0477 72.2939 14.113 71.9119 14.1674C71.4151 14.2466 70.9133 14.2882 70.4106 14.2911C70.1087 14.2921 69.89 14.2842 69.7801 14.2684C68.8518 14.1367 68.4163 13.6993 68.2619 12.7413C68.2085 12.4107 68.1996 11.9406 68.1996 9.27439V6.59035L67.3237 6.5854L66.4498 6.58144V5.48487L67.3237 5.47992L68.1986 5.47596L68.2085 3.75786L69.2289 3.2828V3.28379ZM34.9786 5.29287C36.091 5.53831 36.7591 6.35381 36.9422 7.68594C36.9976 8.08478 37.0055 8.4965 37.0055 11.2726V14.0714H34.9272V11.4398C34.9272 8.736 34.9202 8.42524 34.8559 8.04916C34.7203 7.26136 34.37 6.76256 33.8197 6.56858C33.3654 6.40825 32.7469 6.44388 32.3282 6.65468C31.7988 6.91992 31.4613 7.42565 31.3168 8.17089C31.2782 8.36685 31.2782 8.3807 31.2722 11.2191L31.2673 14.0714H29.1889V5.47596L30.2232 5.47992L31.2584 5.48487L31.2673 6.59035C31.2683 6.94466 31.2732 7.29996 31.2812 7.65427C31.294 7.58202 31.3099 7.51076 31.3287 7.4405C31.5325 6.64379 31.9185 6.06878 32.5143 5.67588C32.9052 5.42944 33.3476 5.27703 33.8078 5.23052C34.1988 5.19192 34.5936 5.21369 34.9786 5.29287ZM42.4241 5.22161C42.7972 5.21171 43.1703 5.2226 43.5424 5.25427C44.4876 5.38194 45.2398 5.69567 45.7386 6.16973C46.1899 6.59926 46.3512 7.09311 46.1958 7.56322C46.0355 8.04619 45.5386 8.27777 44.9725 8.13526C44.7875 8.09369 44.6192 7.99571 44.4915 7.85616C44.3916 7.76412 44.3124 7.6513 44.258 7.5266C44.2065 7.42565 44.1362 7.24256 44.0996 7.12082C43.97 6.68437 43.8423 6.4419 43.6315 6.23406C43.5226 6.12619 43.4603 6.08264 43.3277 6.01732C43.1248 5.91835 43.009 5.88767 42.7457 5.86194C42.3825 5.82235 42.0143 5.88767 41.6868 6.04998C41.473 6.14994 41.282 6.29047 41.1226 6.46367C40.7287 6.88132 40.4793 7.4781 40.3685 8.26986C40.3259 8.57765 40.3249 9.41691 40.3675 9.75439C40.5041 10.8242 40.8564 11.6041 41.4661 12.188C41.9985 12.6977 42.6844 12.957 43.4929 12.956C44.2807 12.956 44.8825 12.7274 45.3645 12.2435C45.7138 11.8921 45.9583 11.4596 46.1364 10.8787L46.2017 10.6669L46.5095 10.6609C46.6164 10.656 46.7233 10.659 46.8302 10.6708C46.8292 10.7441 46.8193 10.8173 46.8005 10.8886C46.3581 13.0045 45.1537 14.1239 43.1446 14.2832C41.5264 14.4109 40.0815 13.8576 39.2036 12.7729C38.6741 12.1188 38.3604 11.3557 38.2367 10.4195C38.1941 9.98103 38.1941 9.53963 38.2367 9.1012C38.3327 8.41039 38.588 7.71365 38.9325 7.2C39.6995 6.05889 40.9415 5.35522 42.4231 5.22062L42.4241 5.22161ZM51.6173 5.22062C51.7242 5.21567 51.8301 5.2127 51.937 5.2127C53.5838 5.19687 54.9061 5.90252 55.6137 7.17328C55.9007 7.7087 56.0907 8.29064 56.1739 8.89237C56.1739 8.90029 54.7111 8.90623 52.9227 8.90623C49.8388 8.90623 49.6726 8.90722 49.6726 8.93691C49.6835 9.23975 49.7072 9.5426 49.7428 9.84346C49.8616 10.6837 50.1447 11.3795 50.591 11.9317C50.976 12.3959 51.4995 12.7245 52.0854 12.8699C52.7941 13.0382 53.66 12.9521 54.2558 12.6542C54.62 12.4681 54.9358 12.1989 55.1762 11.8684C55.3673 11.5992 55.5434 11.2102 55.6681 10.7847C55.6731 10.7688 55.7542 10.7629 55.9947 10.7629C56.1046 10.7589 56.2144 10.7639 56.3233 10.7777C56.3184 10.851 56.3065 10.9232 56.2867 10.9945C55.8334 13.0055 54.5557 14.1169 52.5071 14.2822C50.8899 14.4119 49.439 13.8576 48.5542 12.7739C48.0069 12.1009 47.6655 11.228 47.5744 10.2641C47.5497 9.84643 47.5586 9.42779 47.6012 9.01212C47.6823 8.48462 47.8506 7.97394 48.099 7.50087C48.3068 7.12082 48.5493 6.80115 48.8709 6.48247C49.4677 5.89064 50.2219 5.48388 51.0443 5.31068C51.2145 5.27208 51.3392 5.25328 51.6163 5.22161L51.6173 5.22062ZM62.9849 5.25427C63.9103 5.38689 64.7535 5.85798 65.3503 6.57748C66.1885 7.5741 66.5587 9.09625 66.334 10.6224C66.0658 12.4414 64.9435 13.7844 63.3659 14.1753C63.0878 14.2476 62.8018 14.2872 62.5148 14.2941C61.3193 14.3436 60.3177 13.8666 59.7249 12.9679L59.6457 12.8492L59.6407 15.5827L59.6368 18.3162H57.5584L57.5624 11.9L57.5673 5.48487L58.6016 5.47992L59.6368 5.47596L59.6378 6.07274C59.6388 6.54186 59.6437 6.6626 59.6595 6.63687C60.1781 5.82433 60.9491 5.34928 61.9457 5.22854C62.2921 5.20973 62.6395 5.21765 62.9849 5.25427ZM81.7801 5.22953C82.178 5.20973 82.5758 5.21765 82.9727 5.25328C84.3682 5.44825 85.4687 6.10837 86.1862 7.18318C87.1205 8.5826 87.171 10.6392 86.307 12.1217C85.6597 13.2332 84.5285 13.9932 83.1835 14.2209C81.9385 14.4317 80.6954 14.2149 79.7018 13.6162C79.3237 13.3875 78.8694 12.9936 78.6082 12.6651C78.1598 12.1 77.8461 11.4111 77.7115 10.6936C77.5997 10.0533 77.6036 9.39711 77.7214 8.75777C78.05 7.06243 79.2891 5.77584 80.9894 5.36313C81.2496 5.29979 81.5129 5.25526 81.7791 5.22854L81.7801 5.22953ZM92.8033 5.23052C92.925 5.21963 93.0468 5.21369 93.1695 5.2127C93.8543 5.20577 94.4452 5.36808 94.8856 5.68379C95.0915 5.84115 95.2736 6.02722 95.426 6.23703C95.7457 6.70812 95.9278 7.32173 95.9812 8.10161C95.9921 8.26491 96 9.47035 96 11.2191V14.0714H93.9217V11.3963C93.9217 8.7172 93.9167 8.42425 93.8573 8.07588C93.7296 7.31678 93.4199 6.83282 92.9151 6.6052C92.5777 6.45278 92.0521 6.42507 91.6315 6.53889C91.2604 6.63786 90.9031 6.89221 90.6893 7.20693C90.5151 7.46425 90.3894 7.79184 90.3113 8.19068C90.2737 8.38367 90.2727 8.40742 90.2667 11.228L90.2618 14.0714H88.1834V5.47596L89.2186 5.47992L90.2539 5.48487L90.2618 6.58936L90.2707 7.69386L90.3043 7.5355C90.3914 7.13369 90.5498 6.74969 90.7725 6.40429C90.9268 6.1727 91.2574 5.84214 91.485 5.69171C91.8532 5.44825 92.3164 5.28594 92.8033 5.23052ZM25.5766 5.48882C25.5835 5.4819 26.0516 5.47695 26.6158 5.47695H27.6431V14.0704H25.5647V9.78507C25.5647 7.42763 25.5706 5.49476 25.5766 5.48882ZM74.4109 5.48882C74.4168 5.4819 74.8849 5.47695 75.4501 5.47695H76.4774V14.0704H74.399V9.78507C74.399 7.42763 74.404 5.49476 74.4109 5.48882ZM51.0126 6.03216C50.8038 6.12816 50.6158 6.26573 50.4594 6.43497C50.114 6.79819 49.8774 7.31282 49.7607 7.95612L49.728 8.12932H53.8629L53.853 8.00066C53.8332 7.75126 53.7907 7.47118 53.7461 7.30293C53.5245 6.45179 52.9643 5.94111 52.1488 5.84808C51.7598 5.79761 51.3649 5.86095 51.0126 6.03216ZM81.8336 5.93715C80.932 6.05988 80.2798 6.7388 80.0244 7.81955C79.7127 9.13979 79.9739 11.138 80.6103 12.2999C80.9161 12.8591 81.3328 13.2807 81.7485 13.4529C81.9583 13.5489 82.1889 13.5934 82.4195 13.5825C82.6491 13.5914 82.8777 13.5578 83.0944 13.4835C83.7714 13.2529 84.2682 12.6443 84.4899 11.7753C84.7977 10.5649 84.6116 8.70433 84.0594 7.48701C83.6843 6.65963 83.1518 6.12619 82.5442 5.9708C82.3779 5.92726 82.0236 5.91142 81.8336 5.93715ZM61.4934 6.20833C61.243 6.20437 61.0956 6.21031 60.9956 6.22713C60.5364 6.3073 60.1079 6.51315 59.7565 6.81996L59.6368 6.92882V12.5809L59.712 12.6502C60.1811 13.0837 60.7997 13.3202 61.438 13.3104C62.1189 13.3104 62.6494 13.0916 63.1284 12.6136C63.6262 12.1158 63.9489 11.4042 64.0815 10.5075C64.1389 10.0018 64.1389 9.49212 64.0815 8.98639C63.9855 8.33122 63.7757 7.74928 63.4807 7.31184C63.1047 6.75761 62.6326 6.41616 62.0259 6.25979C61.8695 6.22021 61.8052 6.21427 61.4934 6.20833ZM5.58977 0H11.1974V5.56998H5.59868V11.1419H0V5.56206L5.58977 0ZM12.0861 6.54384H17.6838V12.1217L14.8889 14.9028L12.095 17.6838H6.48742V12.1138H12.0861V6.54384Z" fill="#868686"/>
</svg>