<svg width="90" height="24" viewBox="0 0 90 24" fill="none"
  xmlns="http://www.w3.org/2000/svg">
  <g clip-path="url(#clip0_1434_8)">
    <mask id="mask0_1434_8" style="mask-type:luminance" maskUnits="userSpaceOnUse" x="2" y="0" width="85" height="25">
      <path d="M2.40039 0.00195312H86.4724V24.002H2.40039V0.00195312Z" fill="white"/>
    </mask>
    <g mask="url(#mask0_1434_8)">
      <path d="M8.51733 8.08515C6.39573 8.08515 5.35413 9.96915 5.35413 12.488V18.7952H2.36133V5.48355H5.30133V8.93715H5.35173C5.98053 6.81315 7.22973 5.09715 9.16053 5.09715C10.5189 5.09715 11.0889 5.57595 11.0889 5.57595L9.73893 8.31795C9.73893 8.31795 9.30933 8.08515 8.51733 8.08515ZM44.6841 9.91395V18.7952H41.7705V10.9952C41.7705 8.75715 41.0745 7.57155 39.2937 7.57155C37.5129 7.57155 36.5577 9.07275 36.5577 11.948V18.7952H33.6693V10.9952C33.6693 8.84235 32.9805 7.57155 31.2177 7.57155C29.2065 7.57155 28.4325 9.34755 28.4325 11.948V18.7952H25.4925V5.48355H28.4325V8.49795H28.4589C28.9149 6.41355 30.1677 5.12475 32.2773 5.12475C34.3869 5.12475 35.7309 6.25635 36.2493 8.26875C36.7413 6.33315 38.0541 5.12475 40.0677 5.12475C42.8769 5.12475 44.6841 6.89955 44.6841 9.91275M16.9689 5.10075C14.2629 5.10075 12.4953 6.38115 11.6889 8.69235L14.1777 9.60675C14.6313 8.21235 15.5781 7.41915 17.0217 7.41915C18.6477 7.41915 19.6005 8.14155 19.6005 9.24675C19.6005 10.3532 18.8409 10.6148 17.1237 10.8956C15.2157 11.2052 10.6737 11.3084 10.6737 15.1676C10.6737 17.4308 12.5481 19.1324 15.3669 19.1324C17.4849 19.1324 18.9309 18.2588 19.5981 16.634H19.6245V18.7988H22.5381V10.6124C22.5381 7.02915 20.7489 5.10435 16.9665 5.10435L16.9689 5.10075ZM19.6773 12.5288C19.6773 15.3224 18.3069 17.1152 16.1181 17.1152C14.5701 17.1152 13.6401 16.2392 13.6401 14.9768C13.6401 13.7912 14.5953 12.9716 16.4265 12.632C18.2985 12.284 19.2417 11.8568 19.6749 10.8308V12.5324L19.6773 12.5288ZM55.0533 5.12475C52.8249 5.12475 51.3501 6.36075 50.7213 8.21475V5.48355H47.6265V23.918H50.6949V16.0616H50.7213C51.4041 18.0728 52.8273 19.1792 55.0533 19.1792C58.5861 19.1792 61.1133 16.2452 61.1133 12.0992C61.1133 7.98195 58.5861 5.12475 55.0533 5.12475ZM54.2901 16.7108C51.8421 16.7108 50.4861 14.9204 50.4861 12.1388C50.4861 9.35955 52.0065 7.56915 54.2901 7.56915C56.5737 7.56915 58.0941 9.44475 58.0941 12.14C58.0941 14.8352 56.5749 16.7108 54.2901 16.7108ZM86.4333 18.7364V18.8204H74.4537V18.7364C76.1805 17.7524 77.3721 16.7516 78.4461 15.7052H83.3661L86.4333 18.7364ZM83.4657 3.00435L80.4321 0.00195312H80.3433C80.3433 0.00195312 80.3937 5.59875 75.2973 10.6892C70.3101 15.6692 64.4421 15.6812 64.4421 15.6812V15.77L67.5357 18.8252C67.5357 18.8252 73.3185 18.8852 78.4245 13.8332C83.5125 8.79915 83.4705 3.00675 83.4705 3.00675L83.4657 3.00435Z" fill="white"/>
    </g>
  </g>
  <defs>
    <clipPath id="clip0_1434_8">
      <rect width="90" height="24" fill="white"/>
    </clipPath>
  </defs>
</svg>
