<?xml version="1.0" encoding="UTF-8"?>
<svg width="355px" height="78px" viewBox="0 0 355 78" version="1.1" xmlns="http://www.w3.org/2000/svg" xmlns:xlink="http://www.w3.org/1999/xlink">
    <title>full_white_svg</title>
    <g id="final" stroke="none" stroke-width="1" fill="none" fill-rule="evenodd">
        <g id="full_white_svg" transform="translate(0.0201, 0.5)" fill="#868686" fill-rule="nonzero">
            <path d="M55.3799312,0.593455276 C59.0502148,0.543220863 62.4530194,2.50783098 64.2446569,5.71150703 L79.1088157,32.2905157 C80.8287892,35.3660474 80.8031018,39.1198225 79.0411991,42.1715275 L63.9745892,68.2676614 C62.2126865,71.3193664 58.9746656,73.2184998 55.4511903,73.2667249 L25.0010141,73.6834902 C21.3307305,73.7337246 17.927926,71.7691145 16.1362885,68.5654384 L1.27212971,41.9864297 C-0.447843812,38.910898 -0.422156443,35.1571229 1.33974623,32.105418 L16.4063562,6.00928403 C18.1682589,2.95757908 21.4062798,1.05844562 24.9297551,1.01022054 L55.3799312,0.593455276 Z M55.4346733,4.59308067 L24.9844972,5.00984594 C22.870412,5.03878098 20.9275994,6.17826106 19.8704578,8.00928403 L4.80384784,34.105418 C3.74670624,35.9364409 3.73129382,38.188706 4.76327793,40.034025 L19.6274367,66.6130337 C20.7024192,68.5352394 22.7441019,69.7140054 24.9462721,69.6838648 L55.3964482,69.2670995 C57.5105334,69.2381645 59.453346,68.0986844 60.5104876,66.2676614 L75.5770975,40.1715275 C76.6342391,38.3405045 76.6496516,36.0882394 75.6176674,34.2429204 L60.7535087,7.66391172 C59.6785262,5.74170609 57.6368434,4.56294002 55.4346733,4.59308067 Z M37.4278497,38.3559315 C38.1543205,38.3559315 38.8236651,38.749862 39.1763494,39.384979 L40.2854318,41.382224 C40.5535529,41.8650589 40.379493,42.473829 39.8966582,42.7419502 C39.7481409,42.8244227 39.5810616,42.8677003 39.4111819,42.8677003 L17.5139532,42.8677003 C17.2378108,42.8677003 17.0139532,43.0915579 17.0139532,43.3677003 C17.0139532,43.4534775 17.0360205,43.5378122 17.0780335,43.6125961 L19.5603553,48.0311814 C19.9144415,48.6614621 20.5811022,49.051598 21.3040343,49.051598 L43.4180018,49.051598 C44.1418162,49.051598 44.809147,49.4426784 45.162887,50.0741649 L52.2313021,62.6924945 C52.6361682,63.4152497 52.3784681,64.3293672 51.655713,64.7342333 C51.4317527,64.8596892 51.1793431,64.9255694 50.9226382,64.9255694 L25.0316548,64.9255694 C24.3069184,64.9255694 23.6388881,64.5335009 23.2855121,63.9007543 L22.1688578,61.9013001 C21.8995679,61.4191161 22.0721527,60.8099261 22.5543367,60.5406362 C22.7033714,60.4574034 22.8712316,60.4137069 23.0419333,60.4137076 L44.7754682,60.4137971 C45.0516106,60.4137982 45.2754691,60.1899415 45.2754703,59.9137991 C45.2754706,59.8285265 45.2536623,59.7446706 45.2121184,59.6702023 L42.3774398,54.5889878 C42.0241948,53.9557897 41.355914,53.5633668 40.6308472,53.5633668 L18.633438,53.5633668 C17.9085282,53.5633668 17.2403665,53.1711124 16.8870592,52.5381289 L10.2163959,40.5870031 C9.8126362,39.8636293 10.0717346,38.9499071 10.7951084,38.5461474 C11.0185814,38.4214133 11.2702526,38.3559315 11.52618,38.3559315 L37.4278497,38.3559315 Z M62.5552275,22.0634133 C63.0369783,21.7933493 63.6464447,21.9649554 63.9165087,22.4467063 L71.4288731,35.8475606 C71.7693261,36.4548741 71.7694481,37.1955362 71.4291953,37.8029619 L58.8132243,60.3252307 C58.6780996,60.5664578 58.4789296,60.7656432 58.2377129,60.9007865 C57.5149844,61.3057001 56.6008499,61.0480602 56.1959363,60.3253317 L49.1293789,47.7122636 C48.7893368,47.1053238 48.7891278,46.3652851 49.1288272,45.7581533 L62.1715352,22.4474192 C62.2615789,22.2864875 62.3943694,22.1535884 62.5552275,22.0634133 Z M56.5657381,11.3425596 C57.0481439,11.0736672 57.6571914,11.246754 57.9260837,11.7291598 L59.2927349,14.1809974 C59.6307449,14.7874035 59.630101,15.5257183 59.2910338,16.1315339 L46.2411571,39.4479111 C46.1505456,39.6098077 46.0166821,39.743305 45.8545378,39.8334726 C45.3718647,40.1018847 44.7629897,39.9281918 44.4945776,39.4455186 L43.132593,36.9963242 C42.7956115,36.3903457 42.7965357,35.6530642 43.1350355,35.0479326 L56.1798749,11.7278398 C56.2703222,11.5661483 56.4039101,11.4327623 56.5657381,11.3425596 Z" id="Combined-Shape-Copy"></path>
            <path d="M111.031812,28.9892595 C116.555441,28.9892595 123.019262,27.4614471 123.019262,21.9769927 C123.019262,11.8699265 103.823672,17.9028265 103.823672,12.5750707 C103.823672,10.6946863 105.782405,9.67614471 110.483366,9.67614471 C114.361659,9.67614471 116.908013,10.968909 117.848205,13.4760882 L122.549166,13.0843414 C121.138878,7.71741097 116.006995,5.87620124 110.483366,5.87620124 C103.39275,5.87620124 99.3185839,8.18750707 99.3185839,12.5750707 C99.3185839,22.7996608 118.514175,16.4925382 118.514175,22.0945167 C118.514175,24.1707744 115.45855,25.189316 111.031812,25.189316 C106.330851,25.189316 103.862846,23.9357264 102.844305,20.6842284 L98.1433437,21.2718485 C99.4752826,27.6181458 106.056628,28.9892595 111.031812,28.9892595 Z" id="Path-Copy-10"></path>
            <path d="M135.476809,28.2892594 C137.396368,28.2892594 138.060843,28.2892594 139.59015,28.2892594 L139.054556,24.3717924 C137.916511,24.3717924 137.396368,24.3717924 136.221128,24.3717924 C134.497442,24.3717924 133.596425,23.4707745 133.596425,21.4336914 L133.596425,10.3812889 L139.59015,10.3812889 L139.59015,6.65969474 L133.596425,6.65969474 L133.596425,0.783493499 L129.091337,3.133974 L129.091337,6.65969474 L124.782123,6.65969474 L124.782123,10.3812889 L129.091337,10.3812889 L129.091337,21.5903904 C129.091337,26.1738274 131.480992,28.2892594 135.476809,28.2892594 Z" id="Path-Copy-9"></path>
            <path d="M146.854084,69.6403054 C148.773643,69.6403054 149.438118,69.6403054 150.967425,69.6403054 L150.431831,65.7228384 C149.293787,65.7228384 148.773643,65.7228384 147.598403,65.7228384 C145.874717,65.7228384 144.9737,64.8218205 144.9737,62.7847374 L144.9737,51.7323347 L150.967425,51.7323347 L150.967425,48.0107405 L144.9737,48.0107405 L144.9737,42.1345393 L140.468612,44.4850198 L140.468612,48.0107405 L136.159398,48.0107405 L136.159398,51.7323347 L140.468612,51.7323347 L140.468612,62.9414364 C140.468612,67.5248734 142.858267,69.6403054 146.854084,69.6403054 Z" id="Path-Copy-11"></path>
            <path d="M171.281331,28.205766 L175.786419,28.205766 L175.786419,17.0409836 C175.786419,12.5750707 178.332773,9.79366874 183.42548,9.79366874 C188.518188,9.79366874 190.281049,12.5750707 190.281049,17.0409836 L190.281049,28.205766 L194.786136,28.205766 L194.786136,15.66987 C194.786136,8.18750707 189.654254,5.87620124 184.600721,5.87620124 C179.782236,5.87620124 177.000834,7.83493499 175.590545,10.0678915 L175.590545,6.65969474 L171.281331,6.65969474 L171.281331,28.205766 Z" id="Path-Copy-8"></path>
            <path d="M210.043626,28.9892595 C214.862111,28.9892595 218.231133,27.0697004 220.033168,24.7975692 L220.033168,28.205766 L224.342383,28.205766 L224.342383,0 L219.837295,0 L219.837295,10.1070661 C217.839387,7.75658564 215.057985,5.87620124 210.2395,5.87620124 C203.854028,5.87620124 198.487097,9.67614471 198.487097,17.5110797 C198.487097,24.9542679 203.658154,28.9892595 210.043626,28.9892595 Z M203.188058,17.471905 C203.188058,12.1833239 206.909652,9.79366874 211.022993,9.79366874 C216.115701,9.79366874 219.837295,12.1833239 219.837295,17.4327304 C219.837295,22.7213115 216.115701,25.071792 211.022993,25.071792 C206.909652,25.071792 203.188058,22.7604862 203.188058,17.471905 Z" id="Shape-Copy-10"></path>
            <path d="M255.698573,28.205766 L260.20366,28.205766 L260.20366,17.4327304 C260.20366,12.3791973 264.003604,10.5379876 267.137578,10.5379876 C268.782914,10.5379876 269.84063,11.086433 270.780822,11.6740531 L271.368443,6.65969474 C270.5066,6.15042397 269.135486,5.83702657 267.921071,5.83702657 C263.768556,5.83702657 261.104678,8.34420577 260.007787,10.6555116 L260.007787,6.65969474 L255.698573,6.65969474 L255.698573,28.205766 Z" id="Path-Copy-7"></path>
            <path d="M283.491959,28.9892595 C288.310444,28.9892595 291.679466,27.0697004 293.481501,24.7975692 L293.481501,28.205766 L297.790715,28.205766 L297.790715,0 L293.285627,0 L293.285627,10.1070661 C291.287719,7.75658564 288.506317,5.87620124 283.687832,5.87620124 C277.30236,5.87620124 271.93543,9.67614471 271.93543,17.5110797 C271.93543,24.9542679 277.106487,28.9892595 283.491959,28.9892595 Z M276.636391,17.471905 C276.636391,12.1833239 280.357985,9.79366874 284.471326,9.79366874 C289.564033,9.79366874 293.285627,12.1833239 293.285627,17.4327304 C293.285627,22.7213115 289.564033,25.071792 284.471326,25.071792 C280.357985,25.071792 276.636391,22.7604862 276.636391,17.471905 Z" id="Shape-Copy-9"></path>
            <path d="M99.5144573,69.5568118 L104.019545,69.5568118 L104.019545,48.0107405 L99.5144573,48.0107405 L99.5144573,69.5568118 Z M99.2794092,45.4643867 L104.254593,45.4643867 L104.254593,40.4892029 L99.2794092,40.4892029 L99.2794092,45.4643867 Z" id="Shape-Copy-8"></path>
            <path d="M109.954593,69.5568118 L114.459681,69.5568118 L114.459681,58.3920294 C114.459681,53.9261164 117.006034,51.1447145 122.098742,51.1447145 C127.19145,51.1447145 128.95431,53.9261164 128.95431,58.3920294 L128.95431,69.5568118 L133.459398,69.5568118 L133.459398,57.0209158 C133.459398,49.5385529 128.327516,47.227247 123.273982,47.227247 C118.455497,47.227247 115.674096,49.1859808 114.263807,51.4189373 L114.263807,48.0107405 L109.954593,48.0107405 L109.954593,69.5568118 Z" id="Path-Copy-6"></path>
            <polygon id="Path-Copy-4" points="183.743343 69.5568118 188.248431 69.5568118 188.248431 41.3510458 183.743343 41.3510458"></polygon>
            <polygon id="Path-Copy-3" points="194.447437 69.5568118 198.952525 69.5568118 198.952525 41.3510458 194.447437 41.3510458"></polygon>
            <path d="M205.388567,69.5568118 L209.893655,69.5568118 L209.893655,48.0107405 L205.388567,48.0107405 L205.388567,69.5568118 Z M205.153519,45.4643867 L210.128703,45.4643867 L210.128703,40.4892029 L205.153519,40.4892029 L205.153519,45.4643867 Z" id="Shape-Copy-7"></path>
            <path d="M226.081105,69.165065 C230.89959,69.165065 233.680992,67.2846806 235.6789,64.9342001 L235.6789,66.6187111 C235.6789,70.614528 233.250071,73.2784059 227.687267,73.2784059 C223.808974,73.2784059 221.02117,73.2784059 218.671004,73.2784059 L220.22471,77 C223.930602,77 223.887323,77 228.196538,77 C235.953123,77 240.183988,73.98355 240.183988,66.6187111 L240.183988,48.0107405 L235.874774,48.0107405 L235.874774,51.4189373 C233.876865,49.1468061 230.703717,47.227247 225.885232,47.227247 C219.49976,47.227247 214.328703,51.2622386 214.328703,58.1178067 C214.328703,65.3651215 219.695633,69.165065 226.081105,69.165065 Z M219.029664,58.1569813 C219.029664,53.4560204 222.751258,51.1447145 226.864599,51.1447145 C231.957306,51.1447145 235.6789,53.4560204 235.6789,58.1569813 C235.6789,62.8579423 231.957306,65.2475975 226.864599,65.2475975 C222.751258,65.2475975 219.029664,62.8579423 219.029664,58.1569813 Z" id="Shape-Copy-6"></path>
            <path d="M274.185684,69.5568118 L278.690772,69.5568118 L278.690772,58.3920294 C278.690772,53.9261164 281.237125,51.1447145 286.329833,51.1447145 C291.422541,51.1447145 293.185401,53.9261164 293.185401,58.3920294 L293.185401,69.5568118 L297.690489,69.5568118 L297.690489,57.0209158 C297.690489,49.5385529 292.558607,47.227247 287.505073,47.227247 C282.686588,47.227247 279.905187,49.1859808 278.494898,51.4189373 L278.494898,48.0107405 L274.185684,48.0107405 L274.185684,69.5568118 Z" id="Path-Copy-2"></path>
            <path d="M313.926385,70.3403053 C321.291224,70.3403053 325.95301,66.8145845 326.658154,61.1342566 L321.945597,61.1342566 C321.514676,65.1692482 318.431473,66.4228378 313.926385,66.4228378 C309.421297,66.4228378 306.09145,63.6806105 306.09145,58.7837761 C306.09145,53.8869418 309.421297,51.1447145 313.926385,51.1447145 C318.313949,51.1447145 320.904259,52.5941775 321.609403,56.2374223 L326.266408,56.2374223 C325.482914,50.9488412 321.252049,47.227247 313.926385,47.227247 C306.522371,47.227247 301.390489,51.7323347 301.390489,58.7837761 C301.390489,65.8352176 306.522371,70.3403053 313.926385,70.3403053 Z" id="Path-Copy"></path>
            <path d="M257.419884,70.3403053 C264.432151,70.3403053 268.349618,66.4228378 269.407335,63.2888638 L264.844192,63.2888638 C264.060699,65.1692482 261.924972,66.4228378 257.419884,66.4228378 C252.797272,66.4228378 249.467425,63.6022612 249.389076,59.763143 L269.485684,59.763143 C269.485684,51.7323347 264.823898,47.227247 257.498233,47.227247 C250.09422,47.227247 244.883988,51.7323347 244.883988,58.7837761 C244.883988,65.796043 249.976696,70.3403053 257.419884,70.3403053 Z M249.389076,56.2374223 C249.819997,53.2209723 253.189019,50.9488412 257.30236,50.9488412 C261.415701,50.9488412 264.197103,53.2209723 264.784723,56.2374223 L249.389076,56.2374223 Z" id="Shape-Copy-5"></path>
            <path d="M342.89405,69.5568118 C349.906317,69.5568118 353.823785,65.6393443 354.881501,62.5053703 L350.318359,62.5053703 C349.534865,64.3857547 347.399138,65.6393443 342.89405,65.6393443 C338.271439,65.6393443 334.941591,62.8187677 334.863242,58.9796495 L354.95985,58.9796495 C354.95985,50.9488412 350.298064,46.4437535 342.9724,46.4437535 C335.568386,46.4437535 330.358154,50.9488412 330.358154,58.0002826 C330.358154,65.0125495 335.450862,69.5568118 342.89405,69.5568118 Z M334.863242,55.4539288 C335.294163,52.4374788 338.663185,50.1653477 342.776526,50.1653477 C346.889867,50.1653477 349.671269,52.4374788 350.258889,55.4539288 L334.863242,55.4539288 Z" id="Shape-Copy-4"></path>
            <path d="M166.477544,70.3403053 C173.489811,70.3403053 177.407278,66.4228378 178.464994,63.2888638 L173.901852,63.2888638 C173.118359,65.1692482 170.982631,66.4228378 166.477544,66.4228378 C161.854932,66.4228378 158.525085,63.6022612 158.446735,59.763143 L178.543344,59.763143 C178.543344,51.7323347 173.881557,47.227247 166.555893,47.227247 C159.15188,47.227247 153.941648,51.7323347 153.941648,58.7837761 C153.941648,65.796043 159.034356,70.3403053 166.477544,70.3403053 Z M158.446735,56.2374223 C158.877657,53.2209723 162.246679,50.9488412 166.36002,50.9488412 C170.473361,50.9488412 173.254763,53.2209723 173.842383,56.2374223 L158.446735,56.2374223 Z" id="Shape-Copy-3"></path>
            <path d="M154.42837,28.9892595 C157.80937,28.9892595 160.94537,27.0790724 162.36637,24.4164007 L162.36637,28.2001974 L166.58037,28.2001974 L166.58037,6.66525609 L162.36637,6.66525609 L162.36637,10.4957662 C160.94537,7.83309455 158.00537,6.10469363 154.42837,6.10469363 C147.42137,6.10469363 142.657437,11.1030423 142.657437,17.4560835 C142.657437,23.8091247 147.22537,28.9892595 154.42837,28.9892595 Z M154.91837,25.1171038 C149.583128,25.1171038 146.867437,21.8471561 146.867437,17.4560835 C146.867437,13.0182973 149.691341,10.0625144 154.91837,10.0625144 C160.446735,10.0625144 162.56237,13.2985786 162.56237,17.4560835 C162.56237,21.6135884 160.446735,25.1171038 154.91837,25.1171038 Z" id="Shape"></path>
            <path d="M239.383457,28.9892595 C242.764457,28.9892595 245.900457,27.0790724 247.321457,24.4164007 L247.321457,28.2001974 L251.535457,28.2001974 L251.535457,6.66525609 L247.321457,6.66525609 L247.321457,10.4957662 C245.900457,7.83309455 242.960457,6.10469363 239.383457,6.10469363 C232.376457,6.10469363 227.612524,11.1030423 227.612524,17.4560835 C227.612524,23.8091247 232.180457,28.9892595 239.383457,28.9892595 Z M239.873457,25.1171038 C234.538214,25.1171038 231.822524,21.8471561 231.822524,17.4560835 C231.822524,13.0182973 234.646427,10.0625144 239.873457,10.0625144 C245.401822,10.0625144 247.517457,13.2985786 247.517457,17.4560835 C247.517457,21.6135884 245.401822,25.1171038 239.873457,25.1171038 Z" id="Shape-Copy"></path>
        </g>
    </g>
</svg>