<svg width="92" height="25" viewBox="0 0 92 25" fill="none" xmlns="http://www.w3.org/2000/svg">
<path d="M21.598 17.0796L21.5852 17.0385L29.7636 9.55132V5.9438H16.6426V9.55132H24.4798L24.4927 9.58589L16.3942 17.0796V20.6872H29.8953V17.0796H21.598Z" fill="white"/>
<path d="M37.9517 5.59978C36.4383 5.59978 35.2048 5.82805 34.2513 6.28457C33.3633 6.68243 32.6151 7.33794 32.1041 8.16609C31.6153 8.99969 31.3083 9.92727 31.2034 10.8879L35.1845 11.4474C35.3286 10.5992 35.6167 9.99795 36.0486 9.64367C36.5398 9.27313 37.145 9.08591 37.7595 9.11442C38.5675 9.11442 39.1536 9.33045 39.518 9.76247C39.8787 10.1945 40.0623 10.7929 40.0623 11.5814V11.9745H36.2344C34.2859 11.9745 32.8861 12.4065 32.0351 13.2706C31.1839 14.1347 30.7591 15.2753 30.7606 16.6924C30.7606 18.144 31.1854 19.2242 32.0351 19.9326C32.8846 20.6412 33.9533 20.9933 35.2408 20.9889C36.8378 20.9889 38.0663 20.4396 38.926 19.3408C39.4337 18.6655 39.7963 17.8925 39.991 17.0704H40.1357L40.6845 20.6778H44.292V11.5425C44.292 9.65447 43.7944 8.19203 42.7993 7.15514C41.8041 6.11825 40.1884 5.59978 37.9517 5.59978ZM39.2133 16.8609C38.6409 17.3383 37.8914 17.5759 36.9581 17.5759C36.189 17.5759 35.6548 17.4412 35.3553 17.1719C35.2094 17.0445 35.0931 16.8865 35.0151 16.7092C34.9371 16.5319 34.899 16.3395 34.9038 16.1458C34.8952 15.9632 34.9241 15.7807 34.9883 15.6095C35.0525 15.4383 35.1509 15.282 35.2775 15.15C35.4143 15.0216 35.5758 14.9223 35.7523 14.8581C35.9287 14.7938 36.1161 14.766 36.3036 14.7763H40.0688V15.0247C40.0765 15.3758 40.0033 15.724 39.855 16.0424C39.7066 16.3608 39.4871 16.6408 39.2133 16.8609Z" fill="white"/>
<path d="M66.1005 5.9438H61.8384V20.6892H66.1005V5.9438Z" fill="white"/>
<path d="M91.2649 5.9438C90.0611 5.9438 89.112 6.36863 88.4179 7.21832C87.9196 7.82893 87.5408 8.73118 87.2816 9.92502H87.1563L86.5991 5.9438H82.959V20.6872H87.2212V13.1264C87.2212 12.1731 87.4444 11.4422 87.8909 10.9338C88.3372 10.4255 89.1609 10.1713 90.362 10.1713H91.98V5.9438H91.2649Z" fill="white"/>
<path d="M78.7334 6.42526C77.7383 5.83338 76.4833 5.53815 74.9682 5.53959C72.5835 5.53959 70.717 6.21861 69.3691 7.57665C68.021 8.93469 67.3471 10.8068 67.3471 13.1931C67.3127 14.6358 67.6277 16.0654 68.2651 17.3601C68.8486 18.5138 69.7574 19.4714 70.879 20.1143C72.008 20.7668 73.351 21.0938 74.9077 21.095C76.2543 21.095 77.379 20.8877 78.2819 20.4731C79.1309 20.1005 79.8701 19.5166 80.4291 18.7773C80.9615 18.0514 81.3569 17.2344 81.5956 16.3665L77.9234 15.3382C77.7688 15.9026 77.4712 16.4175 77.0593 16.833C76.6444 17.2478 75.9496 17.4552 74.9746 17.4552C73.8155 17.4552 72.9514 17.1232 72.3824 16.4593C71.9699 15.9798 71.7107 15.295 71.5961 14.4072H81.6519C81.693 13.9924 81.7145 13.6446 81.7145 13.3638V12.4457C81.7388 11.2124 81.484 9.98946 80.9692 8.86844C80.4874 7.84722 79.708 6.99558 78.7334 6.42526ZM74.8451 9.05421C76.5733 9.05421 77.5532 9.9046 77.785 11.6054H71.6717C71.7689 11.0379 72.004 10.503 72.3566 10.0479C72.9168 9.384 73.7463 9.05277 74.8451 9.05421Z" fill="white"/>
<path d="M64.0176 0.00138318C63.697 -0.00952119 63.3774 0.0441382 63.0779 0.159176C62.7785 0.274214 62.5053 0.448277 62.2744 0.671027C62.0468 0.895911 61.8684 1.16567 61.7505 1.46315C61.6325 1.76065 61.5777 2.07938 61.5897 2.39916C61.5781 2.721 61.6331 3.04176 61.751 3.34142C61.8691 3.6411 62.0476 3.91323 62.2753 4.14085C62.5032 4.36847 62.7755 4.54669 63.0752 4.66441C63.375 4.78213 63.6959 4.8368 64.0176 4.82503C64.3374 4.83712 64.6563 4.78246 64.9538 4.66456C65.2513 4.54667 65.521 4.3681 65.7458 4.14024C65.9687 3.91003 66.1428 3.63712 66.2574 3.33791C66.3722 3.03869 66.4252 2.71938 66.4132 2.39916C66.4279 2.08083 66.3762 1.76292 66.2611 1.46574C66.1461 1.16856 65.9704 0.898637 65.7452 0.673203C65.5199 0.447769 65.2502 0.271778 64.9531 0.156473C64.656 0.0411686 64.3381 -0.0109122 64.0198 0.00354546L64.0176 0.00138318Z" fill="white"/>
<path d="M55.2124 5.53958C53.761 5.53958 52.5945 5.99537 51.7131 6.90696C51.0606 7.58239 50.5819 8.59049 50.2765 9.93123H50.1404L49.5832 5.95H45.9431V24.9252H50.2051V17.1096H50.3608C50.4908 17.6307 50.6731 18.1373 50.9051 18.6216C51.2657 19.4107 51.857 20.072 52.6009 20.5183C53.3723 20.9392 54.2411 21.1487 55.1195 21.1254C56.904 21.1254 58.2627 20.4306 59.196 19.0407C60.129 17.651 60.5958 15.7119 60.5958 13.2234C60.5958 10.8198 60.1443 8.93829 59.2412 7.5788C58.3383 6.21933 56.9954 5.53958 55.2124 5.53958ZM55.6446 16.2239C55.1477 16.9439 54.3701 17.304 53.3115 17.304C52.8752 17.3241 52.4401 17.24 52.0428 17.0585C51.6452 16.8771 51.2968 16.6036 51.0262 16.2606C50.4745 15.5679 50.1994 14.6196 50.2009 13.4156V13.1348C50.2009 11.9121 50.4759 10.9761 51.0262 10.3265C51.5762 9.67707 52.338 9.3559 53.3115 9.36312C54.3888 9.36312 55.1714 9.70514 55.6597 10.3892C56.1479 11.0733 56.392 12.0273 56.392 13.2514C56.395 14.5173 56.1472 15.5081 55.6488 16.2239H55.6446Z" fill="white"/>
<path d="M14.7455 17.0803H0V20.6922H14.7455V17.0803Z" fill="white"/>
</svg>
