<svg xmlns="http://www.w3.org/2000/svg" width="94" height="26" viewBox="0 0 94 26" fill="none">
  <g clip-path="url(#clip0_786_1593)">
    <path d="M21.9308 17.3426L21.9178 17.3009L30.2216 9.69895V6.03613H16.8994V9.69895H24.8568L24.8699 9.73405L16.6472 17.3426V21.0055H30.3553V17.3426H21.9308Z" fill="white" fill-opacity="0.5"/>
    <path d="M38.5326 5.68652C36.9959 5.68652 35.7435 5.91828 34.7754 6.3818C33.8738 6.78576 33.1142 7.45133 32.5953 8.29217C32.099 9.13854 31.7873 10.0803 31.6808 11.0557L35.723 11.6238C35.8692 10.7626 36.1617 10.1521 36.6003 9.79239C37.099 9.41617 37.7135 9.22608 38.3374 9.25503C39.1577 9.25503 39.7528 9.47437 40.1228 9.91301C40.4891 10.3517 40.6755 10.9592 40.6755 11.7598V12.1589H36.7889C34.8105 12.1589 33.3893 12.5976 32.5252 13.4749C31.661 14.3523 31.2297 15.5103 31.2312 16.9491C31.2312 18.423 31.6625 19.5197 32.5252 20.239C33.3878 20.9585 34.4728 21.316 35.7801 21.3115C37.4016 21.3115 38.6489 20.7538 39.5218 19.6381C40.0373 18.9525 40.4054 18.1677 40.603 17.333H40.75L41.3072 20.9957H44.97V11.7203C44.97 9.80335 44.4648 8.3185 43.4545 7.26572C42.444 6.21293 40.8035 5.68652 38.5326 5.68652ZM39.8135 17.1202C39.2322 17.6049 38.4713 17.8462 37.5237 17.8462C36.7428 17.8462 36.2004 17.7095 35.8963 17.436C35.7482 17.3067 35.6301 17.1463 35.5509 16.9662C35.4717 16.7862 35.4331 16.5909 35.4379 16.3942C35.4292 16.2088 35.4585 16.0235 35.5237 15.8497C35.5889 15.6758 35.6888 15.5171 35.8173 15.3831C35.9563 15.2527 36.1203 15.1519 36.2994 15.0867C36.4785 15.0215 36.6688 14.9932 36.8592 15.0037H40.6821V15.2559C40.6899 15.6124 40.6156 15.966 40.465 16.2892C40.3143 16.6125 40.0914 16.8968 39.8135 17.1202Z" fill="white" fill-opacity="0.5"/>
    <path d="M67.1165 6.03613H62.7891V21.0075H67.1165V6.03613Z" fill="white" fill-opacity="0.5"/>
    <path d="M92.6647 6.03613C91.4424 6.03613 90.4788 6.46747 89.774 7.33018C89.268 7.95016 88.8835 8.86623 88.6203 10.0784H88.4931L87.9273 6.03613H84.2314V21.0055H88.559V13.3289C88.559 12.3609 88.7856 11.6188 89.2389 11.1027C89.692 10.5865 90.5285 10.3284 91.748 10.3284H93.3907V6.03613H92.6647Z" fill="white" fill-opacity="0.5"/>
    <path d="M79.9415 6.52621C78.9312 5.92525 77.657 5.6255 76.1186 5.62696C73.6974 5.62696 71.8023 6.31639 70.4337 7.69524C69.0649 9.0741 68.3808 10.9749 68.3808 13.3978C68.3458 14.8626 68.6656 16.3141 69.3128 17.6287C69.9053 18.8001 70.828 19.7723 71.9668 20.4251C73.1131 21.0876 74.4766 21.4195 76.0572 21.4208C77.4244 21.4208 78.5664 21.2103 79.4831 20.7893C80.3451 20.4111 81.0956 19.8182 81.6633 19.0676C82.2038 18.3305 82.6052 17.501 82.8477 16.6198L79.1191 15.5758C78.9622 16.1488 78.66 16.6716 78.2418 17.0935C77.8206 17.5146 77.1151 17.7252 76.1252 17.7252C74.9482 17.7252 74.0709 17.3882 73.4932 16.7141C73.0744 16.2272 72.8113 15.5319 72.6949 14.6304H82.9048C82.9465 14.2093 82.9683 13.8562 82.9683 13.5711V12.6389C82.993 11.3867 82.7343 10.145 82.2117 9.00684C81.7225 7.96997 80.9311 7.10527 79.9415 6.52621ZM75.9937 9.19545C77.7483 9.19545 78.7433 10.0589 78.9786 11.7857H72.7717C72.8703 11.2095 73.109 10.6665 73.4671 10.2044C74.0358 9.5303 74.878 9.19399 75.9937 9.19545Z" fill="white" fill-opacity="0.5"/>
    <path d="M64.9991 0.00238094C64.6736 -0.00869056 64.3491 0.0457912 64.0451 0.162592C63.741 0.279394 63.4636 0.456124 63.2292 0.682288C62.9981 0.91062 62.817 1.18451 62.6972 1.48656C62.5775 1.78861 62.5218 2.11222 62.534 2.43691C62.5222 2.76369 62.5781 3.08936 62.6978 3.39361C62.8177 3.69788 62.9989 3.97419 63.2301 4.2053C63.4615 4.4364 63.738 4.61736 64.0423 4.73688C64.3467 4.8564 64.6725 4.91192 64.9991 4.89996C65.3238 4.91223 65.6477 4.85674 65.9497 4.73703C66.2517 4.61734 66.5255 4.43603 66.7538 4.20468C66.9802 3.97094 67.1569 3.69385 67.2732 3.39004C67.3898 3.08624 67.4436 2.76204 67.4314 2.43691C67.4464 2.1137 67.3939 1.79092 67.277 1.48918C67.1602 1.18745 66.9818 0.913388 66.7532 0.684498C66.5244 0.455608 66.2506 0.276921 65.9489 0.159848C65.6473 0.0427762 65.3245 -0.0101029 65.0014 0.00457636L64.9991 0.00238094Z" fill="white" fill-opacity="0.5"/>
    <path d="M56.061 5.62695C54.5873 5.62695 53.4029 6.08973 52.508 7.01529C51.8455 7.70107 51.3595 8.72462 51.0494 10.0859H50.9112L50.3454 6.04367H46.6495V25.3097H50.9769V17.3743H51.1349C51.267 17.9034 51.4521 18.4177 51.6876 18.9095C52.0537 19.7106 52.6541 20.3821 53.4094 20.8353C54.1926 21.2626 55.0748 21.4754 55.9667 21.4516C57.7784 21.4516 59.158 20.7462 60.1056 19.335C61.0529 17.924 61.5268 15.9552 61.5268 13.4285C61.5268 10.9881 61.0684 9.07775 60.1515 7.69742C59.2348 6.31712 57.8713 5.62695 56.061 5.62695ZM56.4997 16.475C55.9952 17.2061 55.2057 17.5717 54.1309 17.5717C53.6879 17.5921 53.2462 17.5067 52.8427 17.3225C52.4391 17.1382 52.0853 16.8605 51.8105 16.5123C51.2504 15.809 50.9711 14.8461 50.9726 13.6237V13.3386C50.9726 12.0972 51.2519 11.1467 51.8105 10.4873C52.369 9.82785 53.1425 9.50177 54.1309 9.50909C55.2247 9.50909 56.0193 9.85636 56.515 10.5509C57.0108 11.2454 57.2586 12.2142 57.2586 13.457C57.2616 14.7423 57.01 15.7483 56.504 16.475H56.4997Z" fill="white" fill-opacity="0.5"/>
    <path d="M14.9715 17.3428H0V21.01H14.9715V17.3428Z" fill="white" fill-opacity="0.5"/>
  </g>
  <defs>
    <clipPath id="clip0_786_1593">
      <rect width="93.3915" height="25.4025" fill="white"/>
    </clipPath>
  </defs>
</svg>